solid ASCII
  facet normal -9.975641e-01 -6.975647e-02 0.000000e+00
    outer loop
      vertex   4.304866e+01 8.304134e+00 -3.000000e+00
      vertex   4.304866e+01 8.304134e+00 0.000000e+00
      vertex   4.300000e+01 9.000000e+00 -3.000000e+00
    endloop
  endfacet
  facet normal -9.975641e-01 -6.975647e-02 0.000000e+00
    outer loop
      vertex   4.300000e+01 9.000000e+00 -3.000000e+00
      vertex   4.304866e+01 8.304134e+00 0.000000e+00
      vertex   4.300000e+01 9.000000e+00 0.000000e+00
    endloop
  endfacet
  facet normal -9.975641e-01 6.975647e-02 0.000000e+00
    outer loop
      vertex   4.300000e+01 9.000000e+00 -3.000000e+00
      vertex   4.300000e+01 9.000000e+00 0.000000e+00
      vertex   4.304866e+01 9.695866e+00 -3.000000e+00
    endloop
  endfacet
  facet normal -9.975641e-01 6.975647e-02 0.000000e+00
    outer loop
      vertex   4.304866e+01 9.695866e+00 -3.000000e+00
      vertex   4.300000e+01 9.000000e+00 0.000000e+00
      vertex   4.304866e+01 9.695866e+00 0.000000e+00
    endloop
  endfacet
  facet normal -9.781476e-01 2.079117e-01 0.000000e+00
    outer loop
      vertex   4.304866e+01 9.695866e+00 -3.000000e+00
      vertex   4.304866e+01 9.695866e+00 0.000000e+00
      vertex   4.319369e+01 1.037819e+01 -3.000000e+00
    endloop
  endfacet
  facet normal -9.781476e-01 2.079117e-01 2.462169e-16
    outer loop
      vertex   4.319369e+01 1.037819e+01 -3.000000e+00
      vertex   4.304866e+01 9.695866e+00 0.000000e+00
      vertex   4.319369e+01 1.037819e+01 0.000000e+00
    endloop
  endfacet
  facet normal -9.396926e-01 3.420201e-01 4.050332e-16
    outer loop
      vertex   4.319369e+01 1.037819e+01 -3.000000e+00
      vertex   4.319369e+01 1.037819e+01 0.000000e+00
      vertex   4.343227e+01 1.103368e+01 -3.000000e+00
    endloop
  endfacet
  facet normal -9.396926e-01 3.420201e-01 2.025166e-16
    outer loop
      vertex   4.343227e+01 1.103368e+01 -3.000000e+00
      vertex   4.319369e+01 1.037819e+01 0.000000e+00
      vertex   4.343227e+01 1.103368e+01 0.000000e+00
    endloop
  endfacet
  facet normal -8.829476e-01 4.694716e-01 2.779830e-16
    outer loop
      vertex   4.343227e+01 1.103368e+01 -3.000000e+00
      vertex   4.343227e+01 1.103368e+01 0.000000e+00
      vertex   4.375976e+01 1.164960e+01 -3.000000e+00
    endloop
  endfacet
  facet normal -8.829476e-01 4.694716e-01 0.000000e+00
    outer loop
      vertex   4.375976e+01 1.164960e+01 -3.000000e+00
      vertex   4.343227e+01 1.103368e+01 0.000000e+00
      vertex   4.375976e+01 1.164960e+01 0.000000e+00
    endloop
  endfacet
  facet normal -8.090170e-01 5.877853e-01 0.000000e+00
    outer loop
      vertex   4.375976e+01 1.164960e+01 -3.000000e+00
      vertex   4.375976e+01 1.164960e+01 0.000000e+00
      vertex   4.416978e+01 1.221394e+01 -3.000000e+00
    endloop
  endfacet
  facet normal -8.090170e-01 5.877853e-01 0.000000e+00
    outer loop
      vertex   4.416978e+01 1.221394e+01 -3.000000e+00
      vertex   4.375976e+01 1.164960e+01 0.000000e+00
      vertex   4.416978e+01 1.221394e+01 0.000000e+00
    endloop
  endfacet
  facet normal -7.193398e-01 6.946584e-01 0.000000e+00
    outer loop
      vertex   4.416978e+01 1.221394e+01 -3.000000e+00
      vertex   4.416978e+01 1.221394e+01 0.000000e+00
      vertex   4.465435e+01 1.271572e+01 -3.000000e+00
    endloop
  endfacet
  facet normal -7.193398e-01 6.946584e-01 0.000000e+00
    outer loop
      vertex   4.465435e+01 1.271572e+01 -3.000000e+00
      vertex   4.416978e+01 1.221394e+01 0.000000e+00
      vertex   4.465435e+01 1.271572e+01 0.000000e+00
    endloop
  endfacet
  facet normal -6.156615e-01 7.880108e-01 0.000000e+00
    outer loop
      vertex   4.465435e+01 1.271572e+01 -3.000000e+00
      vertex   4.465435e+01 1.271572e+01 0.000000e+00
      vertex   4.520404e+01 1.314519e+01 -3.000000e+00
    endloop
  endfacet
  facet normal -6.156615e-01 7.880108e-01 0.000000e+00
    outer loop
      vertex   4.520404e+01 1.314519e+01 -3.000000e+00
      vertex   4.465435e+01 1.271572e+01 0.000000e+00
      vertex   4.520404e+01 1.314519e+01 0.000000e+00
    endloop
  endfacet
  facet normal -5.000000e-01 8.660254e-01 0.000000e+00
    outer loop
      vertex   4.520404e+01 1.314519e+01 -3.000000e+00
      vertex   4.520404e+01 1.314519e+01 0.000000e+00
      vertex   4.580814e+01 1.349397e+01 -3.000000e+00
    endloop
  endfacet
  facet normal -5.000000e-01 8.660254e-01 0.000000e+00
    outer loop
      vertex   4.580814e+01 1.349397e+01 -3.000000e+00
      vertex   4.520404e+01 1.314519e+01 0.000000e+00
      vertex   4.580814e+01 1.349397e+01 0.000000e+00
    endloop
  endfacet
  facet normal -3.746066e-01 9.271839e-01 0.000000e+00
    outer loop
      vertex   4.580814e+01 1.349397e+01 -3.000000e+00
      vertex   4.580814e+01 1.349397e+01 0.000000e+00
      vertex   4.645492e+01 1.375528e+01 -3.000000e+00
    endloop
  endfacet
  facet normal -3.746066e-01 9.271839e-01 0.000000e+00
    outer loop
      vertex   4.645492e+01 1.375528e+01 -3.000000e+00
      vertex   4.580814e+01 1.349397e+01 0.000000e+00
      vertex   4.645492e+01 1.375528e+01 0.000000e+00
    endloop
  endfacet
  facet normal -2.419219e-01 9.702957e-01 0.000000e+00
    outer loop
      vertex   4.645492e+01 1.375528e+01 -3.000000e+00
      vertex   4.645492e+01 1.375528e+01 0.000000e+00
      vertex   4.713176e+01 1.392404e+01 -3.000000e+00
    endloop
  endfacet
  facet normal -2.419219e-01 9.702957e-01 0.000000e+00
    outer loop
      vertex   4.713176e+01 1.392404e+01 -3.000000e+00
      vertex   4.645492e+01 1.375528e+01 0.000000e+00
      vertex   4.713176e+01 1.392404e+01 0.000000e+00
    endloop
  endfacet
  facet normal -1.045285e-01 9.945219e-01 0.000000e+00
    outer loop
      vertex   4.713176e+01 1.392404e+01 -3.000000e+00
      vertex   4.713176e+01 1.392404e+01 0.000000e+00
      vertex   4.782550e+01 1.399695e+01 -3.000000e+00
    endloop
  endfacet
  facet normal -1.045285e-01 9.945219e-01 0.000000e+00
    outer loop
      vertex   4.782550e+01 1.399695e+01 -3.000000e+00
      vertex   4.713176e+01 1.392404e+01 0.000000e+00
      vertex   4.782550e+01 1.399695e+01 0.000000e+00
    endloop
  endfacet
  facet normal 3.489950e-02 9.993908e-01 -0.000000e+00
    outer loop
      vertex   4.782550e+01 1.399695e+01 -3.000000e+00
      vertex   4.782550e+01 1.399695e+01 0.000000e+00
      vertex   4.852264e+01 1.397261e+01 -3.000000e+00
    endloop
  endfacet
  facet normal 3.489950e-02 9.993908e-01 -1.183516e-15
    outer loop
      vertex   4.852264e+01 1.397261e+01 -3.000000e+00
      vertex   4.782550e+01 1.399695e+01 0.000000e+00
      vertex   4.852264e+01 1.397261e+01 0.000000e+00
    endloop
  endfacet
  facet normal 1.736482e-01 9.848078e-01 -1.166247e-15
    outer loop
      vertex   4.852264e+01 1.397261e+01 -3.000000e+00
      vertex   4.852264e+01 1.397261e+01 0.000000e+00
      vertex   4.920961e+01 1.385148e+01 -3.000000e+00
    endloop
  endfacet
  facet normal 1.736482e-01 9.848078e-01 8.225630e-16
    outer loop
      vertex   4.920961e+01 1.385148e+01 -3.000000e+00
      vertex   4.852264e+01 1.397261e+01 0.000000e+00
      vertex   4.920961e+01 1.385148e+01 0.000000e+00
    endloop
  endfacet
  facet normal 3.090170e-01 9.510565e-01 1.463799e-15
    outer loop
      vertex   4.920961e+01 1.385148e+01 -3.000000e+00
      vertex   4.920961e+01 1.385148e+01 0.000000e+00
      vertex   4.987303e+01 1.363592e+01 -3.000000e+00
    endloop
  endfacet
  facet normal 3.090170e-01 9.510565e-01 -0.000000e+00
    outer loop
      vertex   4.987303e+01 1.363592e+01 -3.000000e+00
      vertex   4.920961e+01 1.385148e+01 0.000000e+00
      vertex   4.987303e+01 1.363592e+01 0.000000e+00
    endloop
  endfacet
  facet normal 4.383711e-01 8.987940e-01 -0.000000e+00
    outer loop
      vertex   4.987303e+01 1.363592e+01 -3.000000e+00
      vertex   4.987303e+01 1.363592e+01 0.000000e+00
      vertex   5.050000e+01 1.333013e+01 -3.000000e+00
    endloop
  endfacet
  facet normal 4.383711e-01 8.987940e-01 5.321930e-16
    outer loop
      vertex   5.050000e+01 1.333013e+01 -3.000000e+00
      vertex   4.987303e+01 1.363592e+01 0.000000e+00
      vertex   5.050000e+01 1.333013e+01 0.000000e+00
    endloop
  endfacet
  facet normal 5.591929e-01 8.290376e-01 4.908889e-16
    outer loop
      vertex   5.050000e+01 1.333013e+01 -3.000000e+00
      vertex   5.050000e+01 1.333013e+01 0.000000e+00
      vertex   5.107831e+01 1.294005e+01 -3.000000e+00
    endloop
  endfacet
  facet normal 5.591929e-01 8.290376e-01 3.426571e-16
    outer loop
      vertex   5.107831e+01 1.294005e+01 -3.000000e+00
      vertex   5.050000e+01 1.333013e+01 0.000000e+00
      vertex   5.107831e+01 1.294005e+01 0.000000e+00
    endloop
  endfacet
  facet normal 6.691306e-01 7.431448e-01 7.047594e-16
    outer loop
      vertex   5.107831e+01 1.294005e+01 -3.000000e+00
      vertex   5.107831e+01 1.294005e+01 0.000000e+00
      vertex   5.159670e+01 1.247329e+01 -3.000000e+00
    endloop
  endfacet
  facet normal 6.691306e-01 7.431448e-01 1.144790e-15
    outer loop
      vertex   5.159670e+01 1.247329e+01 -3.000000e+00
      vertex   5.107831e+01 1.294005e+01 0.000000e+00
      vertex   5.159670e+01 1.247329e+01 0.000000e+00
    endloop
  endfacet
  facet normal 7.660444e-01 6.427876e-01 1.433751e-15
    outer loop
      vertex   5.159670e+01 1.247329e+01 -3.000000e+00
      vertex   5.159670e+01 1.247329e+01 0.000000e+00
      vertex   5.204508e+01 1.193893e+01 -3.000000e+00
    endloop
  endfacet
  facet normal 7.660444e-01 6.427876e-01 -0.000000e+00
    outer loop
      vertex   5.204508e+01 1.193893e+01 -3.000000e+00
      vertex   5.159670e+01 1.247329e+01 0.000000e+00
      vertex   5.204508e+01 1.193893e+01 0.000000e+00
    endloop
  endfacet
  facet normal 8.480481e-01 5.299193e-01 -0.000000e+00
    outer loop
      vertex   5.204508e+01 1.193893e+01 -3.000000e+00
      vertex   5.204508e+01 1.193893e+01 0.000000e+00
      vertex   5.241474e+01 1.134736e+01 -3.000000e+00
    endloop
  endfacet
  facet normal 8.480481e-01 5.299193e-01 -0.000000e+00
    outer loop
      vertex   5.241474e+01 1.134736e+01 -3.000000e+00
      vertex   5.204508e+01 1.193893e+01 0.000000e+00
      vertex   5.241474e+01 1.134736e+01 0.000000e+00
    endloop
  endfacet
  facet normal 9.135455e-01 4.067366e-01 -0.000000e+00
    outer loop
      vertex   5.241474e+01 1.134736e+01 -3.000000e+00
      vertex   5.241474e+01 1.134736e+01 0.000000e+00
      vertex   5.269846e+01 1.071010e+01 -3.000000e+00
    endloop
  endfacet
  facet normal 9.135455e-01 4.067366e-01 -0.000000e+00
    outer loop
      vertex   5.269846e+01 1.071010e+01 -3.000000e+00
      vertex   5.241474e+01 1.134736e+01 0.000000e+00
      vertex   5.269846e+01 1.071010e+01 0.000000e+00
    endloop
  endfacet
  facet normal 9.612617e-01 2.756374e-01 -0.000000e+00
    outer loop
      vertex   5.269846e+01 1.071010e+01 -3.000000e+00
      vertex   5.269846e+01 1.071010e+01 0.000000e+00
      vertex   5.289074e+01 1.003956e+01 -3.000000e+00
    endloop
  endfacet
  facet normal 9.612617e-01 2.756374e-01 -1.632101e-16
    outer loop
      vertex   5.289074e+01 1.003956e+01 -3.000000e+00
      vertex   5.269846e+01 1.071010e+01 0.000000e+00
      vertex   5.289074e+01 1.003956e+01 0.000000e+00
    endloop
  endfacet
  facet normal 9.902681e-01 1.391731e-01 -8.240703e-17
    outer loop
      vertex   5.289074e+01 1.003956e+01 -3.000000e+00
      vertex   5.289074e+01 1.003956e+01 0.000000e+00
      vertex   5.298782e+01 9.348782e+00 -3.000000e+00
    endloop
  endfacet
  facet normal 9.902681e-01 1.391731e-01 -0.000000e+00
    outer loop
      vertex   5.298782e+01 9.348782e+00 -3.000000e+00
      vertex   5.289074e+01 1.003956e+01 0.000000e+00
      vertex   5.298782e+01 9.348782e+00 0.000000e+00
    endloop
  endfacet
  facet normal 1.000000e+00 0.000000e+00 -0.000000e+00
    outer loop
      vertex   5.298782e+01 9.348782e+00 -3.000000e+00
      vertex   5.298782e+01 9.348782e+00 0.000000e+00
      vertex   5.298782e+01 8.651218e+00 -3.000000e+00
    endloop
  endfacet
  facet normal 1.000000e+00 0.000000e+00 0.000000e+00
    outer loop
      vertex   5.298782e+01 8.651218e+00 -3.000000e+00
      vertex   5.298782e+01 9.348782e+00 0.000000e+00
      vertex   5.298782e+01 8.651218e+00 0.000000e+00
    endloop
  endfacet
  facet normal 9.902681e-01 -1.391731e-01 0.000000e+00
    outer loop
      vertex   5.298782e+01 8.651218e+00 -3.000000e+00
      vertex   5.298782e+01 8.651218e+00 0.000000e+00
      vertex   5.289074e+01 7.960442e+00 -3.000000e+00
    endloop
  endfacet
  facet normal 9.902681e-01 -1.391731e-01 1.236105e-16
    outer loop
      vertex   5.289074e+01 7.960442e+00 -3.000000e+00
      vertex   5.298782e+01 8.651218e+00 0.000000e+00
      vertex   5.289074e+01 7.960442e+00 0.000000e+00
    endloop
  endfacet
  facet normal 9.612617e-01 -2.756374e-01 2.448152e-16
    outer loop
      vertex   5.289074e+01 7.960442e+00 -3.000000e+00
      vertex   5.289074e+01 7.960442e+00 0.000000e+00
      vertex   5.269846e+01 7.289899e+00 -3.000000e+00
    endloop
  endfacet
  facet normal 9.612617e-01 -2.756374e-01 0.000000e+00
    outer loop
      vertex   5.269846e+01 7.289899e+00 -3.000000e+00
      vertex   5.289074e+01 7.960442e+00 0.000000e+00
      vertex   5.269846e+01 7.289899e+00 0.000000e+00
    endloop
  endfacet
  facet normal 9.135455e-01 -4.067366e-01 0.000000e+00
    outer loop
      vertex   5.269846e+01 7.289899e+00 -3.000000e+00
      vertex   5.269846e+01 7.289899e+00 0.000000e+00
      vertex   5.241474e+01 6.652642e+00 -3.000000e+00
    endloop
  endfacet
  facet normal 9.135455e-01 -4.067366e-01 2.408365e-16
    outer loop
      vertex   5.241474e+01 6.652642e+00 -3.000000e+00
      vertex   5.269846e+01 7.289899e+00 0.000000e+00
      vertex   5.241474e+01 6.652642e+00 0.000000e+00
    endloop
  endfacet
  facet normal 8.480481e-01 -5.299193e-01 3.137752e-16
    outer loop
      vertex   5.241474e+01 6.652642e+00 -3.000000e+00
      vertex   5.241474e+01 6.652642e+00 0.000000e+00
      vertex   5.204508e+01 6.061074e+00 -3.000000e+00
    endloop
  endfacet
  facet normal 8.480481e-01 -5.299193e-01 0.000000e+00
    outer loop
      vertex   5.204508e+01 6.061074e+00 -3.000000e+00
      vertex   5.241474e+01 6.652642e+00 0.000000e+00
      vertex   5.204508e+01 6.061074e+00 0.000000e+00
    endloop
  endfacet
  facet normal 7.660444e-01 -6.427876e-01 0.000000e+00
    outer loop
      vertex   5.204508e+01 6.061074e+00 -3.000000e+00
      vertex   5.204508e+01 6.061074e+00 0.000000e+00
      vertex   5.159670e+01 5.526708e+00 -3.000000e+00
    endloop
  endfacet
  facet normal 7.660444e-01 -6.427876e-01 -1.433751e-15
    outer loop
      vertex   5.159670e+01 5.526708e+00 -3.000000e+00
      vertex   5.204508e+01 6.061074e+00 0.000000e+00
      vertex   5.159670e+01 5.526708e+00 0.000000e+00
    endloop
  endfacet
  facet normal 6.691306e-01 -7.431448e-01 -1.144790e-15
    outer loop
      vertex   5.159670e+01 5.526708e+00 -3.000000e+00
      vertex   5.159670e+01 5.526708e+00 0.000000e+00
      vertex   5.107831e+01 5.059946e+00 -3.000000e+00
    endloop
  endfacet
  facet normal 6.691306e-01 -7.431448e-01 -1.144790e-15
    outer loop
      vertex   5.107831e+01 5.059946e+00 -3.000000e+00
      vertex   5.159670e+01 5.526708e+00 0.000000e+00
      vertex   5.107831e+01 5.059946e+00 0.000000e+00
    endloop
  endfacet
  facet normal 5.591929e-01 -8.290376e-01 -8.335460e-16
    outer loop
      vertex   5.107831e+01 5.059946e+00 -3.000000e+00
      vertex   5.107831e+01 5.059946e+00 0.000000e+00
      vertex   5.050000e+01 4.669873e+00 -3.000000e+00
    endloop
  endfacet
  facet normal 5.591929e-01 -8.290376e-01 -2.454444e-16
    outer loop
      vertex   5.050000e+01 4.669873e+00 -3.000000e+00
      vertex   5.107831e+01 5.059946e+00 0.000000e+00
      vertex   5.050000e+01 4.669873e+00 0.000000e+00
    endloop
  endfacet
  facet normal 4.383711e-01 -8.987940e-01 -2.660965e-16
    outer loop
      vertex   5.050000e+01 4.669873e+00 -3.000000e+00
      vertex   5.050000e+01 4.669873e+00 0.000000e+00
      vertex   4.987303e+01 4.364081e+00 -3.000000e+00
    endloop
  endfacet
  facet normal 4.383711e-01 -8.987940e-01 0.000000e+00
    outer loop
      vertex   4.987303e+01 4.364081e+00 -3.000000e+00
      vertex   5.050000e+01 4.669873e+00 0.000000e+00
      vertex   4.987303e+01 4.364081e+00 0.000000e+00
    endloop
  endfacet
  facet normal 3.090170e-01 -9.510565e-01 0.000000e+00
    outer loop
      vertex   4.987303e+01 4.364081e+00 -3.000000e+00
      vertex   4.987303e+01 4.364081e+00 0.000000e+00
      vertex   4.920961e+01 4.148521e+00 -3.000000e+00
    endloop
  endfacet
  facet normal 3.090170e-01 -9.510565e-01 -1.463799e-15
    outer loop
      vertex   4.920961e+01 4.148521e+00 -3.000000e+00
      vertex   4.987303e+01 4.364081e+00 0.000000e+00
      vertex   4.920961e+01 4.148521e+00 0.000000e+00
    endloop
  endfacet
  facet normal 1.736482e-01 -9.848078e-01 -8.225630e-16
    outer loop
      vertex   4.920961e+01 4.148521e+00 -3.000000e+00
      vertex   4.920961e+01 4.148521e+00 0.000000e+00
      vertex   4.852264e+01 4.027391e+00 -3.000000e+00
    endloop
  endfacet
  facet normal 1.736482e-01 -9.848078e-01 2.915617e-16
    outer loop
      vertex   4.852264e+01 4.027391e+00 -3.000000e+00
      vertex   4.920961e+01 4.148521e+00 0.000000e+00
      vertex   4.852264e+01 4.027391e+00 0.000000e+00
    endloop
  endfacet
  facet normal 3.489950e-02 -9.993908e-01 2.958791e-16
    outer loop
      vertex   4.852264e+01 4.027391e+00 -3.000000e+00
      vertex   4.852264e+01 4.027391e+00 0.000000e+00
      vertex   4.782550e+01 4.003046e+00 -3.000000e+00
    endloop
  endfacet
  facet normal 3.489950e-02 -9.993908e-01 0.000000e+00
    outer loop
      vertex   4.782550e+01 4.003046e+00 -3.000000e+00
      vertex   4.852264e+01 4.027391e+00 0.000000e+00
      vertex   4.782550e+01 4.003046e+00 0.000000e+00
    endloop
  endfacet
  facet normal -1.045285e-01 -9.945219e-01 0.000000e+00
    outer loop
      vertex   4.782550e+01 4.003046e+00 -3.000000e+00
      vertex   4.782550e+01 4.003046e+00 0.000000e+00
      vertex   4.713176e+01 4.075961e+00 -3.000000e+00
    endloop
  endfacet
  facet normal -1.045285e-01 -9.945219e-01 0.000000e+00
    outer loop
      vertex   4.713176e+01 4.075961e+00 -3.000000e+00
      vertex   4.782550e+01 4.003046e+00 0.000000e+00
      vertex   4.713176e+01 4.075961e+00 0.000000e+00
    endloop
  endfacet
  facet normal -2.419219e-01 -9.702957e-01 0.000000e+00
    outer loop
      vertex   4.713176e+01 4.075961e+00 -3.000000e+00
      vertex   4.713176e+01 4.075961e+00 0.000000e+00
      vertex   4.645492e+01 4.244717e+00 -3.000000e+00
    endloop
  endfacet
  facet normal -2.419219e-01 -9.702957e-01 0.000000e+00
    outer loop
      vertex   4.645492e+01 4.244717e+00 -3.000000e+00
      vertex   4.713176e+01 4.075961e+00 0.000000e+00
      vertex   4.645492e+01 4.244717e+00 0.000000e+00
    endloop
  endfacet
  facet normal -3.746066e-01 -9.271839e-01 0.000000e+00
    outer loop
      vertex   4.645492e+01 4.244717e+00 -3.000000e+00
      vertex   4.645492e+01 4.244717e+00 0.000000e+00
      vertex   4.580814e+01 4.506030e+00 -3.000000e+00
    endloop
  endfacet
  facet normal -3.746066e-01 -9.271839e-01 0.000000e+00
    outer loop
      vertex   4.580814e+01 4.506030e+00 -3.000000e+00
      vertex   4.645492e+01 4.244717e+00 0.000000e+00
      vertex   4.580814e+01 4.506030e+00 0.000000e+00
    endloop
  endfacet
  facet normal -5.000000e-01 -8.660254e-01 0.000000e+00
    outer loop
      vertex   4.580814e+01 4.506030e+00 -3.000000e+00
      vertex   4.580814e+01 4.506030e+00 0.000000e+00
      vertex   4.520404e+01 4.854812e+00 -3.000000e+00
    endloop
  endfacet
  facet normal -5.000000e-01 -8.660254e-01 -5.127900e-16
    outer loop
      vertex   4.520404e+01 4.854812e+00 -3.000000e+00
      vertex   4.580814e+01 4.506030e+00 0.000000e+00
      vertex   4.520404e+01 4.854812e+00 0.000000e+00
    endloop
  endfacet
  facet normal -6.156615e-01 -7.880108e-01 -4.665961e-16
    outer loop
      vertex   4.520404e+01 4.854812e+00 -3.000000e+00
      vertex   4.520404e+01 4.854812e+00 0.000000e+00
      vertex   4.465435e+01 5.284276e+00 -3.000000e+00
    endloop
  endfacet
  facet normal -6.156615e-01 -7.880108e-01 0.000000e+00
    outer loop
      vertex   4.465435e+01 5.284276e+00 -3.000000e+00
      vertex   4.520404e+01 4.854812e+00 0.000000e+00
      vertex   4.465435e+01 5.284276e+00 0.000000e+00
    endloop
  endfacet
  facet normal -7.193398e-01 -6.946584e-01 0.000000e+00
    outer loop
      vertex   4.465435e+01 5.284276e+00 -3.000000e+00
      vertex   4.465435e+01 5.284276e+00 0.000000e+00
      vertex   4.416978e+01 5.786062e+00 -3.000000e+00
    endloop
  endfacet
  facet normal -7.193398e-01 -6.946584e-01 0.000000e+00
    outer loop
      vertex   4.416978e+01 5.786062e+00 -3.000000e+00
      vertex   4.465435e+01 5.284276e+00 0.000000e+00
      vertex   4.416978e+01 5.786062e+00 0.000000e+00
    endloop
  endfacet
  facet normal -8.090170e-01 -5.877853e-01 0.000000e+00
    outer loop
      vertex   4.416978e+01 5.786062e+00 -3.000000e+00
      vertex   4.416978e+01 5.786062e+00 0.000000e+00
      vertex   4.375976e+01 6.350404e+00 -3.000000e+00
    endloop
  endfacet
  facet normal -8.090170e-01 -5.877853e-01 0.000000e+00
    outer loop
      vertex   4.375976e+01 6.350404e+00 -3.000000e+00
      vertex   4.416978e+01 5.786062e+00 0.000000e+00
      vertex   4.375976e+01 6.350404e+00 0.000000e+00
    endloop
  endfacet
  facet normal -8.829476e-01 -4.694716e-01 0.000000e+00
    outer loop
      vertex   4.375976e+01 6.350404e+00 -3.000000e+00
      vertex   4.375976e+01 6.350404e+00 0.000000e+00
      vertex   4.343227e+01 6.966317e+00 -3.000000e+00
    endloop
  endfacet
  facet normal -8.829476e-01 -4.694716e-01 -2.779830e-16
    outer loop
      vertex   4.343227e+01 6.966317e+00 -3.000000e+00
      vertex   4.375976e+01 6.350404e+00 0.000000e+00
      vertex   4.343227e+01 6.966317e+00 0.000000e+00
    endloop
  endfacet
  facet normal -9.396926e-01 -3.420201e-01 -2.025166e-16
    outer loop
      vertex   4.343227e+01 6.966317e+00 -3.000000e+00
      vertex   4.343227e+01 6.966317e+00 0.000000e+00
      vertex   4.319369e+01 7.621813e+00 -3.000000e+00
    endloop
  endfacet
  facet normal -9.396926e-01 -3.420201e-01 -1.012583e-16
    outer loop
      vertex   4.319369e+01 7.621813e+00 -3.000000e+00
      vertex   4.343227e+01 6.966317e+00 0.000000e+00
      vertex   4.319369e+01 7.621813e+00 0.000000e+00
    endloop
  endfacet
  facet normal -9.781476e-01 -2.079117e-01 -6.155423e-17
    outer loop
      vertex   4.319369e+01 7.621813e+00 -3.000000e+00
      vertex   4.319369e+01 7.621813e+00 0.000000e+00
      vertex   4.304866e+01 8.304134e+00 -3.000000e+00
    endloop
  endfacet
  facet normal -9.781476e-01 -2.079117e-01 0.000000e+00
    outer loop
      vertex   4.304866e+01 8.304134e+00 -3.000000e+00
      vertex   4.319369e+01 7.621813e+00 0.000000e+00
      vertex   4.304866e+01 8.304134e+00 0.000000e+00
    endloop
  endfacet
  facet normal 0.000000e+00 0.000000e+00 -1.000000e+00
    outer loop
      vertex   4.304866e+01 8.304134e+00 -3.000000e+00
      vertex   4.300000e+01 9.000000e+00 -3.000000e+00
      vertex   5.269846e+01 1.071010e+01 -3.000000e+00
    endloop
  endfacet
  facet normal 0.000000e+00 0.000000e+00 -1.000000e+00
    outer loop
      vertex   5.269846e+01 1.071010e+01 -3.000000e+00
      vertex   4.300000e+01 9.000000e+00 -3.000000e+00
      vertex   4.304866e+01 9.695866e+00 -3.000000e+00
    endloop
  endfacet
  facet normal 0.000000e+00 0.000000e+00 -1.000000e+00
    outer loop
      vertex   5.269846e+01 1.071010e+01 -3.000000e+00
      vertex   4.304866e+01 9.695866e+00 -3.000000e+00
      vertex   4.319369e+01 1.037819e+01 -3.000000e+00
    endloop
  endfacet
  facet normal 0.000000e+00 0.000000e+00 -1.000000e+00
    outer loop
      vertex   4.319369e+01 1.037819e+01 -3.000000e+00
      vertex   4.343227e+01 1.103368e+01 -3.000000e+00
      vertex   5.269846e+01 1.071010e+01 -3.000000e+00
    endloop
  endfacet
  facet normal 0.000000e+00 0.000000e+00 -1.000000e+00
    outer loop
      vertex   5.269846e+01 1.071010e+01 -3.000000e+00
      vertex   4.343227e+01 1.103368e+01 -3.000000e+00
      vertex   5.241474e+01 1.134736e+01 -3.000000e+00
    endloop
  endfacet
  facet normal -0.000000e+00 0.000000e+00 -1.000000e+00
    outer loop
      vertex   5.241474e+01 1.134736e+01 -3.000000e+00
      vertex   4.343227e+01 1.103368e+01 -3.000000e+00
      vertex   4.375976e+01 1.164960e+01 -3.000000e+00
    endloop
  endfacet
  facet normal 0.000000e+00 0.000000e+00 -1.000000e+00
    outer loop
      vertex   5.241474e+01 1.134736e+01 -3.000000e+00
      vertex   4.375976e+01 1.164960e+01 -3.000000e+00
      vertex   5.204508e+01 1.193893e+01 -3.000000e+00
    endloop
  endfacet
  facet normal -0.000000e+00 0.000000e+00 -1.000000e+00
    outer loop
      vertex   5.204508e+01 1.193893e+01 -3.000000e+00
      vertex   4.375976e+01 1.164960e+01 -3.000000e+00
      vertex   4.416978e+01 1.221394e+01 -3.000000e+00
    endloop
  endfacet
  facet normal 0.000000e+00 0.000000e+00 -1.000000e+00
    outer loop
      vertex   5.204508e+01 1.193893e+01 -3.000000e+00
      vertex   4.416978e+01 1.221394e+01 -3.000000e+00
      vertex   5.159670e+01 1.247329e+01 -3.000000e+00
    endloop
  endfacet
  facet normal -0.000000e+00 0.000000e+00 -1.000000e+00
    outer loop
      vertex   5.159670e+01 1.247329e+01 -3.000000e+00
      vertex   4.416978e+01 1.221394e+01 -3.000000e+00
      vertex   4.465435e+01 1.271572e+01 -3.000000e+00
    endloop
  endfacet
  facet normal 0.000000e+00 0.000000e+00 -1.000000e+00
    outer loop
      vertex   5.159670e+01 1.247329e+01 -3.000000e+00
      vertex   4.465435e+01 1.271572e+01 -3.000000e+00
      vertex   5.107831e+01 1.294005e+01 -3.000000e+00
    endloop
  endfacet
  facet normal -0.000000e+00 0.000000e+00 -1.000000e+00
    outer loop
      vertex   5.107831e+01 1.294005e+01 -3.000000e+00
      vertex   4.465435e+01 1.271572e+01 -3.000000e+00
      vertex   4.520404e+01 1.314519e+01 -3.000000e+00
    endloop
  endfacet
  facet normal 0.000000e+00 0.000000e+00 -1.000000e+00
    outer loop
      vertex   5.107831e+01 1.294005e+01 -3.000000e+00
      vertex   4.520404e+01 1.314519e+01 -3.000000e+00
      vertex   5.050000e+01 1.333013e+01 -3.000000e+00
    endloop
  endfacet
  facet normal -0.000000e+00 0.000000e+00 -1.000000e+00
    outer loop
      vertex   5.050000e+01 1.333013e+01 -3.000000e+00
      vertex   4.520404e+01 1.314519e+01 -3.000000e+00
      vertex   4.580814e+01 1.349397e+01 -3.000000e+00
    endloop
  endfacet
  facet normal 0.000000e+00 0.000000e+00 -1.000000e+00
    outer loop
      vertex   5.050000e+01 1.333013e+01 -3.000000e+00
      vertex   4.580814e+01 1.349397e+01 -3.000000e+00
      vertex   4.987303e+01 1.363592e+01 -3.000000e+00
    endloop
  endfacet
  facet normal -0.000000e+00 0.000000e+00 -1.000000e+00
    outer loop
      vertex   4.987303e+01 1.363592e+01 -3.000000e+00
      vertex   4.580814e+01 1.349397e+01 -3.000000e+00
      vertex   4.645492e+01 1.375528e+01 -3.000000e+00
    endloop
  endfacet
  facet normal 0.000000e+00 0.000000e+00 -1.000000e+00
    outer loop
      vertex   4.987303e+01 1.363592e+01 -3.000000e+00
      vertex   4.645492e+01 1.375528e+01 -3.000000e+00
      vertex   4.920961e+01 1.385148e+01 -3.000000e+00
    endloop
  endfacet
  facet normal -0.000000e+00 0.000000e+00 -1.000000e+00
    outer loop
      vertex   4.920961e+01 1.385148e+01 -3.000000e+00
      vertex   4.645492e+01 1.375528e+01 -3.000000e+00
      vertex   4.713176e+01 1.392404e+01 -3.000000e+00
    endloop
  endfacet
  facet normal 0.000000e+00 0.000000e+00 -1.000000e+00
    outer loop
      vertex   4.920961e+01 1.385148e+01 -3.000000e+00
      vertex   4.713176e+01 1.392404e+01 -3.000000e+00
      vertex   4.852264e+01 1.397261e+01 -3.000000e+00
    endloop
  endfacet
  facet normal -0.000000e+00 0.000000e+00 -1.000000e+00
    outer loop
      vertex   4.852264e+01 1.397261e+01 -3.000000e+00
      vertex   4.713176e+01 1.392404e+01 -3.000000e+00
      vertex   4.782550e+01 1.399695e+01 -3.000000e+00
    endloop
  endfacet
  facet normal -0.000000e+00 0.000000e+00 -1.000000e+00
    outer loop
      vertex   5.289074e+01 1.003956e+01 -3.000000e+00
      vertex   5.269846e+01 7.289899e+00 -3.000000e+00
      vertex   5.269846e+01 1.071010e+01 -3.000000e+00
    endloop
  endfacet
  facet normal 0.000000e+00 -0.000000e+00 -1.000000e+00
    outer loop
      vertex   5.269846e+01 1.071010e+01 -3.000000e+00
      vertex   5.269846e+01 7.289899e+00 -3.000000e+00
      vertex   5.241474e+01 6.652642e+00 -3.000000e+00
    endloop
  endfacet
  facet normal 0.000000e+00 0.000000e+00 -1.000000e+00
    outer loop
      vertex   5.269846e+01 1.071010e+01 -3.000000e+00
      vertex   5.241474e+01 6.652642e+00 -3.000000e+00
      vertex   5.204508e+01 6.061074e+00 -3.000000e+00
    endloop
  endfacet
  facet normal 0.000000e+00 0.000000e+00 -1.000000e+00
    outer loop
      vertex   5.269846e+01 7.289899e+00 -3.000000e+00
      vertex   5.289074e+01 1.003956e+01 -3.000000e+00
      vertex   5.289074e+01 7.960442e+00 -3.000000e+00
    endloop
  endfacet
  facet normal 0.000000e+00 0.000000e+00 -1.000000e+00
    outer loop
      vertex   5.289074e+01 7.960442e+00 -3.000000e+00
      vertex   5.289074e+01 1.003956e+01 -3.000000e+00
      vertex   5.298782e+01 9.348782e+00 -3.000000e+00
    endloop
  endfacet
  facet normal 0.000000e+00 0.000000e+00 -1.000000e+00
    outer loop
      vertex   5.289074e+01 7.960442e+00 -3.000000e+00
      vertex   5.298782e+01 9.348782e+00 -3.000000e+00
      vertex   5.298782e+01 8.651218e+00 -3.000000e+00
    endloop
  endfacet
  facet normal -0.000000e+00 0.000000e+00 -1.000000e+00
    outer loop
      vertex   5.204508e+01 6.061074e+00 -3.000000e+00
      vertex   5.159670e+01 5.526708e+00 -3.000000e+00
      vertex   5.269846e+01 1.071010e+01 -3.000000e+00
    endloop
  endfacet
  facet normal 0.000000e+00 0.000000e+00 -1.000000e+00
    outer loop
      vertex   5.269846e+01 1.071010e+01 -3.000000e+00
      vertex   5.159670e+01 5.526708e+00 -3.000000e+00
      vertex   5.107831e+01 5.059946e+00 -3.000000e+00
    endloop
  endfacet
  facet normal 0.000000e+00 0.000000e+00 -1.000000e+00
    outer loop
      vertex   5.269846e+01 1.071010e+01 -3.000000e+00
      vertex   5.107831e+01 5.059946e+00 -3.000000e+00
      vertex   5.050000e+01 4.669873e+00 -3.000000e+00
    endloop
  endfacet
  facet normal -0.000000e+00 0.000000e+00 -1.000000e+00
    outer loop
      vertex   5.050000e+01 4.669873e+00 -3.000000e+00
      vertex   4.987303e+01 4.364081e+00 -3.000000e+00
      vertex   5.269846e+01 1.071010e+01 -3.000000e+00
    endloop
  endfacet
  facet normal 0.000000e+00 0.000000e+00 -1.000000e+00
    outer loop
      vertex   5.269846e+01 1.071010e+01 -3.000000e+00
      vertex   4.987303e+01 4.364081e+00 -3.000000e+00
      vertex   4.920961e+01 4.148521e+00 -3.000000e+00
    endloop
  endfacet
  facet normal 0.000000e+00 0.000000e+00 -1.000000e+00
    outer loop
      vertex   5.269846e+01 1.071010e+01 -3.000000e+00
      vertex   4.920961e+01 4.148521e+00 -3.000000e+00
      vertex   4.852264e+01 4.027391e+00 -3.000000e+00
    endloop
  endfacet
  facet normal -0.000000e+00 0.000000e+00 -1.000000e+00
    outer loop
      vertex   4.852264e+01 4.027391e+00 -3.000000e+00
      vertex   4.782550e+01 4.003046e+00 -3.000000e+00
      vertex   5.269846e+01 1.071010e+01 -3.000000e+00
    endloop
  endfacet
  facet normal 0.000000e+00 0.000000e+00 -1.000000e+00
    outer loop
      vertex   5.269846e+01 1.071010e+01 -3.000000e+00
      vertex   4.782550e+01 4.003046e+00 -3.000000e+00
      vertex   4.713176e+01 4.075961e+00 -3.000000e+00
    endloop
  endfacet
  facet normal 0.000000e+00 0.000000e+00 -1.000000e+00
    outer loop
      vertex   5.269846e+01 1.071010e+01 -3.000000e+00
      vertex   4.713176e+01 4.075961e+00 -3.000000e+00
      vertex   4.645492e+01 4.244717e+00 -3.000000e+00
    endloop
  endfacet
  facet normal 0.000000e+00 0.000000e+00 -1.000000e+00
    outer loop
      vertex   4.645492e+01 4.244717e+00 -3.000000e+00
      vertex   4.580814e+01 4.506030e+00 -3.000000e+00
      vertex   5.269846e+01 1.071010e+01 -3.000000e+00
    endloop
  endfacet
  facet normal 0.000000e+00 0.000000e+00 -1.000000e+00
    outer loop
      vertex   5.269846e+01 1.071010e+01 -3.000000e+00
      vertex   4.580814e+01 4.506030e+00 -3.000000e+00
      vertex   4.520404e+01 4.854812e+00 -3.000000e+00
    endloop
  endfacet
  facet normal 0.000000e+00 0.000000e+00 -1.000000e+00
    outer loop
      vertex   5.269846e+01 1.071010e+01 -3.000000e+00
      vertex   4.520404e+01 4.854812e+00 -3.000000e+00
      vertex   4.465435e+01 5.284276e+00 -3.000000e+00
    endloop
  endfacet
  facet normal 0.000000e+00 0.000000e+00 -1.000000e+00
    outer loop
      vertex   4.465435e+01 5.284276e+00 -3.000000e+00
      vertex   4.416978e+01 5.786062e+00 -3.000000e+00
      vertex   5.269846e+01 1.071010e+01 -3.000000e+00
    endloop
  endfacet
  facet normal 0.000000e+00 0.000000e+00 -1.000000e+00
    outer loop
      vertex   5.269846e+01 1.071010e+01 -3.000000e+00
      vertex   4.416978e+01 5.786062e+00 -3.000000e+00
      vertex   4.375976e+01 6.350404e+00 -3.000000e+00
    endloop
  endfacet
  facet normal 0.000000e+00 0.000000e+00 -1.000000e+00
    outer loop
      vertex   5.269846e+01 1.071010e+01 -3.000000e+00
      vertex   4.375976e+01 6.350404e+00 -3.000000e+00
      vertex   4.343227e+01 6.966317e+00 -3.000000e+00
    endloop
  endfacet
  facet normal 0.000000e+00 0.000000e+00 -1.000000e+00
    outer loop
      vertex   4.343227e+01 6.966317e+00 -3.000000e+00
      vertex   4.319369e+01 7.621813e+00 -3.000000e+00
      vertex   5.269846e+01 1.071010e+01 -3.000000e+00
    endloop
  endfacet
  facet normal 0.000000e+00 0.000000e+00 -1.000000e+00
    outer loop
      vertex   5.269846e+01 1.071010e+01 -3.000000e+00
      vertex   4.319369e+01 7.621813e+00 -3.000000e+00
      vertex   4.304866e+01 8.304134e+00 -3.000000e+00
    endloop
  endfacet
  facet normal -4.603254e-14 -1.000000e+00 0.000000e+00
    outer loop
      vertex   2.700000e+01 1.500000e+00 0.000000e+00
      vertex   6.094399e+01 1.500000e+00 0.000000e+00
      vertex   2.700000e+01 1.500000e+00 2.500000e+00
    endloop
  endfacet
  facet normal -4.603254e-14 -1.000000e+00 0.000000e+00
    outer loop
      vertex   2.700000e+01 1.500000e+00 2.500000e+00
      vertex   6.094399e+01 1.500000e+00 0.000000e+00
      vertex   6.094399e+01 1.500000e+00 2.500000e+00
    endloop
  endfacet
  facet normal -9.914449e-01 -1.305262e-01 -0.000000e+00
    outer loop
      vertex   2.600000e+01 2.500000e+00 2.500000e+00
      vertex   2.600000e+01 2.500000e+00 0.000000e+00
      vertex   2.603407e+01 2.241181e+00 2.500000e+00
    endloop
  endfacet
  facet normal -9.914449e-01 -1.305262e-01 -0.000000e+00
    outer loop
      vertex   2.603407e+01 2.241181e+00 2.500000e+00
      vertex   2.600000e+01 2.500000e+00 0.000000e+00
      vertex   2.603407e+01 2.241181e+00 0.000000e+00
    endloop
  endfacet
  facet normal -9.238795e-01 -3.826834e-01 -0.000000e+00
    outer loop
      vertex   2.603407e+01 2.241181e+00 2.500000e+00
      vertex   2.603407e+01 2.241181e+00 0.000000e+00
      vertex   2.613397e+01 2.000000e+00 2.500000e+00
    endloop
  endfacet
  facet normal -9.238795e-01 -3.826834e-01 -0.000000e+00
    outer loop
      vertex   2.613397e+01 2.000000e+00 2.500000e+00
      vertex   2.603407e+01 2.241181e+00 0.000000e+00
      vertex   2.613397e+01 2.000000e+00 0.000000e+00
    endloop
  endfacet
  facet normal -7.933533e-01 -6.087614e-01 -0.000000e+00
    outer loop
      vertex   2.613397e+01 2.000000e+00 2.500000e+00
      vertex   2.613397e+01 2.000000e+00 0.000000e+00
      vertex   2.629289e+01 1.792893e+00 2.500000e+00
    endloop
  endfacet
  facet normal -7.933533e-01 -6.087614e-01 -0.000000e+00
    outer loop
      vertex   2.629289e+01 1.792893e+00 2.500000e+00
      vertex   2.613397e+01 2.000000e+00 0.000000e+00
      vertex   2.629289e+01 1.792893e+00 0.000000e+00
    endloop
  endfacet
  facet normal -6.087614e-01 -7.933533e-01 -0.000000e+00
    outer loop
      vertex   2.629289e+01 1.792893e+00 2.500000e+00
      vertex   2.629289e+01 1.792893e+00 0.000000e+00
      vertex   2.650000e+01 1.633975e+00 2.500000e+00
    endloop
  endfacet
  facet normal -6.087614e-01 -7.933533e-01 -0.000000e+00
    outer loop
      vertex   2.650000e+01 1.633975e+00 2.500000e+00
      vertex   2.629289e+01 1.792893e+00 0.000000e+00
      vertex   2.650000e+01 1.633975e+00 0.000000e+00
    endloop
  endfacet
  facet normal -3.826834e-01 -9.238795e-01 -0.000000e+00
    outer loop
      vertex   2.650000e+01 1.633975e+00 2.500000e+00
      vertex   2.650000e+01 1.633975e+00 0.000000e+00
      vertex   2.674118e+01 1.534074e+00 2.500000e+00
    endloop
  endfacet
  facet normal -3.826834e-01 -9.238795e-01 -0.000000e+00
    outer loop
      vertex   2.674118e+01 1.534074e+00 2.500000e+00
      vertex   2.650000e+01 1.633975e+00 0.000000e+00
      vertex   2.674118e+01 1.534074e+00 0.000000e+00
    endloop
  endfacet
  facet normal -1.305262e-01 -9.914449e-01 -0.000000e+00
    outer loop
      vertex   2.674118e+01 1.534074e+00 2.500000e+00
      vertex   2.674118e+01 1.534074e+00 0.000000e+00
      vertex   2.700000e+01 1.500000e+00 2.500000e+00
    endloop
  endfacet
  facet normal -1.305262e-01 -9.914449e-01 -0.000000e+00
    outer loop
      vertex   2.700000e+01 1.500000e+00 2.500000e+00
      vertex   2.674118e+01 1.534074e+00 0.000000e+00
      vertex   2.700000e+01 1.500000e+00 0.000000e+00
    endloop
  endfacet
  facet normal -1.000000e+00 4.044628e-14 0.000000e+00
    outer loop
      vertex   2.600000e+01 1.550000e+01 0.000000e+00
      vertex   2.600000e+01 2.500000e+00 0.000000e+00
      vertex   2.600000e+01 1.550000e+01 2.500000e+00
    endloop
  endfacet
  facet normal -1.000000e+00 4.044628e-14 0.000000e+00
    outer loop
      vertex   2.600000e+01 1.550000e+01 2.500000e+00
      vertex   2.600000e+01 2.500000e+00 0.000000e+00
      vertex   2.600000e+01 2.500000e+00 2.500000e+00
    endloop
  endfacet
  facet normal -1.305262e-01 9.914449e-01 0.000000e+00
    outer loop
      vertex   2.700000e+01 1.650000e+01 2.500000e+00
      vertex   2.700000e+01 1.650000e+01 0.000000e+00
      vertex   2.674118e+01 1.646593e+01 2.500000e+00
    endloop
  endfacet
  facet normal -1.305262e-01 9.914449e-01 0.000000e+00
    outer loop
      vertex   2.674118e+01 1.646593e+01 2.500000e+00
      vertex   2.700000e+01 1.650000e+01 0.000000e+00
      vertex   2.674118e+01 1.646593e+01 0.000000e+00
    endloop
  endfacet
  facet normal -3.826834e-01 9.238795e-01 0.000000e+00
    outer loop
      vertex   2.674118e+01 1.646593e+01 2.500000e+00
      vertex   2.674118e+01 1.646593e+01 0.000000e+00
      vertex   2.650000e+01 1.636603e+01 2.500000e+00
    endloop
  endfacet
  facet normal -3.826834e-01 9.238795e-01 0.000000e+00
    outer loop
      vertex   2.650000e+01 1.636603e+01 2.500000e+00
      vertex   2.674118e+01 1.646593e+01 0.000000e+00
      vertex   2.650000e+01 1.636603e+01 0.000000e+00
    endloop
  endfacet
  facet normal -6.087614e-01 7.933533e-01 0.000000e+00
    outer loop
      vertex   2.650000e+01 1.636603e+01 2.500000e+00
      vertex   2.650000e+01 1.636603e+01 0.000000e+00
      vertex   2.629289e+01 1.620711e+01 2.500000e+00
    endloop
  endfacet
  facet normal -6.087614e-01 7.933533e-01 0.000000e+00
    outer loop
      vertex   2.629289e+01 1.620711e+01 2.500000e+00
      vertex   2.650000e+01 1.636603e+01 0.000000e+00
      vertex   2.629289e+01 1.620711e+01 0.000000e+00
    endloop
  endfacet
  facet normal -7.933533e-01 6.087614e-01 0.000000e+00
    outer loop
      vertex   2.629289e+01 1.620711e+01 2.500000e+00
      vertex   2.629289e+01 1.620711e+01 0.000000e+00
      vertex   2.613397e+01 1.600000e+01 2.500000e+00
    endloop
  endfacet
  facet normal -7.933533e-01 6.087614e-01 0.000000e+00
    outer loop
      vertex   2.613397e+01 1.600000e+01 2.500000e+00
      vertex   2.629289e+01 1.620711e+01 0.000000e+00
      vertex   2.613397e+01 1.600000e+01 0.000000e+00
    endloop
  endfacet
  facet normal -9.238795e-01 3.826834e-01 0.000000e+00
    outer loop
      vertex   2.613397e+01 1.600000e+01 2.500000e+00
      vertex   2.613397e+01 1.600000e+01 0.000000e+00
      vertex   2.603407e+01 1.575882e+01 2.500000e+00
    endloop
  endfacet
  facet normal -9.238795e-01 3.826834e-01 0.000000e+00
    outer loop
      vertex   2.603407e+01 1.575882e+01 2.500000e+00
      vertex   2.613397e+01 1.600000e+01 0.000000e+00
      vertex   2.603407e+01 1.575882e+01 0.000000e+00
    endloop
  endfacet
  facet normal -9.914449e-01 1.305262e-01 0.000000e+00
    outer loop
      vertex   2.603407e+01 1.575882e+01 2.500000e+00
      vertex   2.603407e+01 1.575882e+01 0.000000e+00
      vertex   2.600000e+01 1.550000e+01 2.500000e+00
    endloop
  endfacet
  facet normal -9.914449e-01 1.305262e-01 0.000000e+00
    outer loop
      vertex   2.600000e+01 1.550000e+01 2.500000e+00
      vertex   2.603407e+01 1.575882e+01 0.000000e+00
      vertex   2.600000e+01 1.550000e+01 0.000000e+00
    endloop
  endfacet
  facet normal -2.094026e-16 1.000000e+00 0.000000e+00
    outer loop
      vertex   6.093189e+01 1.650000e+01 0.000000e+00
      vertex   2.700000e+01 1.650000e+01 0.000000e+00
      vertex   6.093189e+01 1.650000e+01 2.500000e+00
    endloop
  endfacet
  facet normal -2.094026e-16 1.000000e+00 0.000000e+00
    outer loop
      vertex   6.093189e+01 1.650000e+01 2.500000e+00
      vertex   2.700000e+01 1.650000e+01 0.000000e+00
      vertex   2.700000e+01 1.650000e+01 2.500000e+00
    endloop
  endfacet
  facet normal 2.747211e-01 9.615239e-01 -0.000000e+00
    outer loop
      vertex   7.493189e+01 1.250000e+01 0.000000e+00
      vertex   6.093189e+01 1.650000e+01 0.000000e+00
      vertex   7.493189e+01 1.250000e+01 2.500000e+00
    endloop
  endfacet
  facet normal 2.747211e-01 9.615239e-01 0.000000e+00
    outer loop
      vertex   7.493189e+01 1.250000e+01 2.500000e+00
      vertex   6.093189e+01 1.650000e+01 0.000000e+00
      vertex   6.093189e+01 1.650000e+01 2.500000e+00
    endloop
  endfacet
  facet normal -1.758292e-10 1.000000e+00 0.000000e+00
    outer loop
      vertex   9.800000e+01 1.250000e+01 0.000000e+00
      vertex   7.493189e+01 1.250000e+01 0.000000e+00
      vertex   9.800000e+01 1.250000e+01 2.500000e+00
    endloop
  endfacet
  facet normal -1.758292e-10 1.000000e+00 0.000000e+00
    outer loop
      vertex   9.800000e+01 1.250000e+01 2.500000e+00
      vertex   7.493189e+01 1.250000e+01 0.000000e+00
      vertex   7.493189e+01 1.250000e+01 2.500000e+00
    endloop
  endfacet
  facet normal 8.257935e-02 -9.965845e-01 0.000000e+00
    outer loop
      vertex   9.800000e+01 5.500000e+00 2.500000e+00
      vertex   9.800000e+01 5.500000e+00 0.000000e+00
      vertex   9.857608e+01 5.547735e+00 2.500000e+00
    endloop
  endfacet
  facet normal 8.257935e-02 -9.965845e-01 0.000000e+00
    outer loop
      vertex   9.857608e+01 5.547735e+00 2.500000e+00
      vertex   9.800000e+01 5.500000e+00 0.000000e+00
      vertex   9.857608e+01 5.547735e+00 0.000000e+00
    endloop
  endfacet
  facet normal 2.454855e-01 -9.694003e-01 0.000000e+00
    outer loop
      vertex   9.857608e+01 5.547735e+00 2.500000e+00
      vertex   9.857608e+01 5.547735e+00 0.000000e+00
      vertex   9.913645e+01 5.689640e+00 2.500000e+00
    endloop
  endfacet
  facet normal 2.454855e-01 -9.694003e-01 0.000000e+00
    outer loop
      vertex   9.913645e+01 5.689640e+00 2.500000e+00
      vertex   9.857608e+01 5.547735e+00 0.000000e+00
      vertex   9.913645e+01 5.689640e+00 0.000000e+00
    endloop
  endfacet
  facet normal 4.016954e-01 -9.157733e-01 0.000000e+00
    outer loop
      vertex   9.913645e+01 5.689640e+00 2.500000e+00
      vertex   9.913645e+01 5.689640e+00 0.000000e+00
      vertex   9.966582e+01 5.921842e+00 2.500000e+00
    endloop
  endfacet
  facet normal 4.016954e-01 -9.157733e-01 0.000000e+00
    outer loop
      vertex   9.966582e+01 5.921842e+00 2.500000e+00
      vertex   9.913645e+01 5.689640e+00 0.000000e+00
      vertex   9.966582e+01 5.921842e+00 0.000000e+00
    endloop
  endfacet
  facet normal 5.469482e-01 -8.371665e-01 0.000000e+00
    outer loop
      vertex   9.966582e+01 5.921842e+00 2.500000e+00
      vertex   9.966582e+01 5.921842e+00 0.000000e+00
      vertex   1.001497e+02 6.238008e+00 2.500000e+00
    endloop
  endfacet
  facet normal 5.469482e-01 -8.371665e-01 0.000000e+00
    outer loop
      vertex   1.001497e+02 6.238008e+00 2.500000e+00
      vertex   9.966582e+01 5.921842e+00 0.000000e+00
      vertex   1.001497e+02 6.238008e+00 0.000000e+00
    endloop
  endfacet
  facet normal 6.772816e-01 -7.357239e-01 0.000000e+00
    outer loop
      vertex   1.001497e+02 6.238008e+00 2.500000e+00
      vertex   1.001497e+02 6.238008e+00 0.000000e+00
      vertex   1.005750e+02 6.629514e+00 2.500000e+00
    endloop
  endfacet
  facet normal 6.772816e-01 -7.357239e-01 0.000000e+00
    outer loop
      vertex   1.005750e+02 6.629514e+00 2.500000e+00
      vertex   1.001497e+02 6.238008e+00 0.000000e+00
      vertex   1.005750e+02 6.629514e+00 0.000000e+00
    endloop
  endfacet
  facet normal 7.891405e-01 -6.142127e-01 0.000000e+00
    outer loop
      vertex   1.005750e+02 6.629514e+00 2.500000e+00
      vertex   1.005750e+02 6.629514e+00 0.000000e+00
      vertex   1.009301e+02 7.085681e+00 2.500000e+00
    endloop
  endfacet
  facet normal 7.891405e-01 -6.142127e-01 0.000000e+00
    outer loop
      vertex   1.009301e+02 7.085681e+00 2.500000e+00
      vertex   1.005750e+02 6.629514e+00 0.000000e+00
      vertex   1.009301e+02 7.085681e+00 0.000000e+00
    endloop
  endfacet
  facet normal 8.794738e-01 -4.759474e-01 0.000000e+00
    outer loop
      vertex   1.009301e+02 7.085681e+00 2.500000e+00
      vertex   1.009301e+02 7.085681e+00 0.000000e+00
      vertex   1.012052e+02 7.594066e+00 2.500000e+00
    endloop
  endfacet
  facet normal 8.794738e-01 -4.759474e-01 0.000000e+00
    outer loop
      vertex   1.012052e+02 7.594066e+00 2.500000e+00
      vertex   1.009301e+02 7.085681e+00 0.000000e+00
      vertex   1.012052e+02 7.594066e+00 0.000000e+00
    endloop
  endfacet
  facet normal 9.458172e-01 -3.246995e-01 0.000000e+00
    outer loop
      vertex   1.012052e+02 7.594066e+00 2.500000e+00
      vertex   1.012052e+02 7.594066e+00 0.000000e+00
      vertex   1.013929e+02 8.140801e+00 2.500000e+00
    endloop
  endfacet
  facet normal 9.458172e-01 -3.246995e-01 0.000000e+00
    outer loop
      vertex   1.013929e+02 8.140801e+00 2.500000e+00
      vertex   1.012052e+02 7.594066e+00 0.000000e+00
      vertex   1.013929e+02 8.140801e+00 0.000000e+00
    endloop
  endfacet
  facet normal 9.863613e-01 -1.645946e-01 0.000000e+00
    outer loop
      vertex   1.013929e+02 8.140801e+00 2.500000e+00
      vertex   1.013929e+02 8.140801e+00 0.000000e+00
      vertex   1.014880e+02 8.710972e+00 2.500000e+00
    endloop
  endfacet
  facet normal 9.863613e-01 -1.645946e-01 0.000000e+00
    outer loop
      vertex   1.014880e+02 8.710972e+00 2.500000e+00
      vertex   1.013929e+02 8.140801e+00 0.000000e+00
      vertex   1.014880e+02 8.710972e+00 0.000000e+00
    endloop
  endfacet
  facet normal 1.000000e+00 -3.318826e-12 0.000000e+00
    outer loop
      vertex   1.014880e+02 8.710972e+00 2.500000e+00
      vertex   1.014880e+02 8.710972e+00 0.000000e+00
      vertex   1.014880e+02 9.289028e+00 2.500000e+00
    endloop
  endfacet
  facet normal 1.000000e+00 -3.318826e-12 0.000000e+00
    outer loop
      vertex   1.014880e+02 9.289028e+00 2.500000e+00
      vertex   1.014880e+02 8.710972e+00 0.000000e+00
      vertex   1.014880e+02 9.289028e+00 0.000000e+00
    endloop
  endfacet
  facet normal 9.863613e-01 1.645946e-01 0.000000e+00
    outer loop
      vertex   1.014880e+02 9.289028e+00 2.500000e+00
      vertex   1.014880e+02 9.289028e+00 0.000000e+00
      vertex   1.013929e+02 9.859199e+00 2.500000e+00
    endloop
  endfacet
  facet normal 9.863613e-01 1.645946e-01 0.000000e+00
    outer loop
      vertex   1.013929e+02 9.859199e+00 2.500000e+00
      vertex   1.014880e+02 9.289028e+00 0.000000e+00
      vertex   1.013929e+02 9.859199e+00 0.000000e+00
    endloop
  endfacet
  facet normal 9.458172e-01 3.246995e-01 0.000000e+00
    outer loop
      vertex   1.013929e+02 9.859199e+00 2.500000e+00
      vertex   1.013929e+02 9.859199e+00 0.000000e+00
      vertex   1.012052e+02 1.040593e+01 2.500000e+00
    endloop
  endfacet
  facet normal 9.458172e-01 3.246995e-01 0.000000e+00
    outer loop
      vertex   1.012052e+02 1.040593e+01 2.500000e+00
      vertex   1.013929e+02 9.859199e+00 0.000000e+00
      vertex   1.012052e+02 1.040593e+01 0.000000e+00
    endloop
  endfacet
  facet normal 8.794738e-01 4.759474e-01 0.000000e+00
    outer loop
      vertex   1.012052e+02 1.040593e+01 2.500000e+00
      vertex   1.012052e+02 1.040593e+01 0.000000e+00
      vertex   1.009301e+02 1.091432e+01 2.500000e+00
    endloop
  endfacet
  facet normal 8.794738e-01 4.759474e-01 0.000000e+00
    outer loop
      vertex   1.009301e+02 1.091432e+01 2.500000e+00
      vertex   1.012052e+02 1.040593e+01 0.000000e+00
      vertex   1.009301e+02 1.091432e+01 0.000000e+00
    endloop
  endfacet
  facet normal 7.891405e-01 6.142127e-01 0.000000e+00
    outer loop
      vertex   1.009301e+02 1.091432e+01 2.500000e+00
      vertex   1.009301e+02 1.091432e+01 0.000000e+00
      vertex   1.005750e+02 1.137049e+01 2.500000e+00
    endloop
  endfacet
  facet normal 7.891405e-01 6.142127e-01 0.000000e+00
    outer loop
      vertex   1.005750e+02 1.137049e+01 2.500000e+00
      vertex   1.009301e+02 1.091432e+01 0.000000e+00
      vertex   1.005750e+02 1.137049e+01 0.000000e+00
    endloop
  endfacet
  facet normal 6.772816e-01 7.357239e-01 0.000000e+00
    outer loop
      vertex   1.005750e+02 1.137049e+01 2.500000e+00
      vertex   1.005750e+02 1.137049e+01 0.000000e+00
      vertex   1.001497e+02 1.176199e+01 2.500000e+00
    endloop
  endfacet
  facet normal 6.772816e-01 7.357239e-01 0.000000e+00
    outer loop
      vertex   1.001497e+02 1.176199e+01 2.500000e+00
      vertex   1.005750e+02 1.137049e+01 0.000000e+00
      vertex   1.001497e+02 1.176199e+01 0.000000e+00
    endloop
  endfacet
  facet normal 5.469482e-01 8.371665e-01 0.000000e+00
    outer loop
      vertex   1.001497e+02 1.176199e+01 2.500000e+00
      vertex   1.001497e+02 1.176199e+01 0.000000e+00
      vertex   9.966582e+01 1.207816e+01 2.500000e+00
    endloop
  endfacet
  facet normal 5.469482e-01 8.371665e-01 0.000000e+00
    outer loop
      vertex   9.966582e+01 1.207816e+01 2.500000e+00
      vertex   1.001497e+02 1.176199e+01 0.000000e+00
      vertex   9.966582e+01 1.207816e+01 0.000000e+00
    endloop
  endfacet
  facet normal 4.016954e-01 9.157733e-01 0.000000e+00
    outer loop
      vertex   9.966582e+01 1.207816e+01 2.500000e+00
      vertex   9.966582e+01 1.207816e+01 0.000000e+00
      vertex   9.913645e+01 1.231036e+01 2.500000e+00
    endloop
  endfacet
  facet normal 4.016954e-01 9.157733e-01 0.000000e+00
    outer loop
      vertex   9.913645e+01 1.231036e+01 2.500000e+00
      vertex   9.966582e+01 1.207816e+01 0.000000e+00
      vertex   9.913645e+01 1.231036e+01 0.000000e+00
    endloop
  endfacet
  facet normal 2.454855e-01 9.694003e-01 0.000000e+00
    outer loop
      vertex   9.913645e+01 1.231036e+01 2.500000e+00
      vertex   9.913645e+01 1.231036e+01 0.000000e+00
      vertex   9.857608e+01 1.245226e+01 2.500000e+00
    endloop
  endfacet
  facet normal 2.454855e-01 9.694003e-01 0.000000e+00
    outer loop
      vertex   9.857608e+01 1.245226e+01 2.500000e+00
      vertex   9.913645e+01 1.231036e+01 0.000000e+00
      vertex   9.857608e+01 1.245226e+01 0.000000e+00
    endloop
  endfacet
  facet normal 8.257935e-02 9.965845e-01 0.000000e+00
    outer loop
      vertex   9.857608e+01 1.245226e+01 2.500000e+00
      vertex   9.857608e+01 1.245226e+01 0.000000e+00
      vertex   9.800000e+01 1.250000e+01 2.500000e+00
    endloop
  endfacet
  facet normal 8.257935e-02 9.965845e-01 0.000000e+00
    outer loop
      vertex   9.800000e+01 1.250000e+01 2.500000e+00
      vertex   9.857608e+01 1.245226e+01 0.000000e+00
      vertex   9.800000e+01 1.250000e+01 0.000000e+00
    endloop
  endfacet
  facet normal -3.290603e-12 -1.000000e+00 0.000000e+00
    outer loop
      vertex   7.494399e+01 5.500000e+00 0.000000e+00
      vertex   9.800000e+01 5.500000e+00 0.000000e+00
      vertex   7.494399e+01 5.500000e+00 2.500000e+00
    endloop
  endfacet
  facet normal -3.290603e-12 -1.000000e+00 0.000000e+00
    outer loop
      vertex   7.494399e+01 5.500000e+00 2.500000e+00
      vertex   9.800000e+01 5.500000e+00 0.000000e+00
      vertex   9.800000e+01 5.500000e+00 2.500000e+00
    endloop
  endfacet
  facet normal 2.747211e-01 -9.615239e-01 0.000000e+00
    outer loop
      vertex   6.094399e+01 1.500000e+00 0.000000e+00
      vertex   7.494399e+01 5.500000e+00 0.000000e+00
      vertex   6.094399e+01 1.500000e+00 2.500000e+00
    endloop
  endfacet
  facet normal 2.747211e-01 -9.615239e-01 0.000000e+00
    outer loop
      vertex   6.094399e+01 1.500000e+00 2.500000e+00
      vertex   7.494399e+01 5.500000e+00 0.000000e+00
      vertex   7.494399e+01 5.500000e+00 2.500000e+00
    endloop
  endfacet
  facet normal -0.000000e+00 -0.000000e+00 1.000000e+00
    outer loop
      vertex   2.700000e+01 1.500000e+00 2.500000e+00
      vertex   6.094399e+01 1.500000e+00 2.500000e+00
      vertex   2.600000e+01 2.500000e+00 2.500000e+00
    endloop
  endfacet
  facet normal -0.000000e+00 0.000000e+00 1.000000e+00
    outer loop
      vertex   2.600000e+01 2.500000e+00 2.500000e+00
      vertex   6.094399e+01 1.500000e+00 2.500000e+00
      vertex   7.494399e+01 5.500000e+00 2.500000e+00
    endloop
  endfacet
  facet normal 0.000000e+00 0.000000e+00 1.000000e+00
    outer loop
      vertex   2.600000e+01 2.500000e+00 2.500000e+00
      vertex   7.494399e+01 5.500000e+00 2.500000e+00
      vertex   7.493189e+01 1.250000e+01 2.500000e+00
    endloop
  endfacet
  facet normal 0.000000e+00 0.000000e+00 1.000000e+00
    outer loop
      vertex   7.493189e+01 1.250000e+01 2.500000e+00
      vertex   7.494399e+01 5.500000e+00 2.500000e+00
      vertex   1.014880e+02 9.289028e+00 2.500000e+00
    endloop
  endfacet
  facet normal 0.000000e+00 0.000000e+00 1.000000e+00
    outer loop
      vertex   7.493189e+01 1.250000e+01 2.500000e+00
      vertex   1.014880e+02 9.289028e+00 2.500000e+00
      vertex   1.013929e+02 9.859199e+00 2.500000e+00
    endloop
  endfacet
  facet normal 0.000000e+00 -0.000000e+00 1.000000e+00
    outer loop
      vertex   9.800000e+01 5.500000e+00 2.500000e+00
      vertex   1.005750e+02 6.629514e+00 2.500000e+00
      vertex   7.494399e+01 5.500000e+00 2.500000e+00
    endloop
  endfacet
  facet normal 0.000000e+00 0.000000e+00 1.000000e+00
    outer loop
      vertex   7.494399e+01 5.500000e+00 2.500000e+00
      vertex   1.005750e+02 6.629514e+00 2.500000e+00
      vertex   1.009301e+02 7.085681e+00 2.500000e+00
    endloop
  endfacet
  facet normal 0.000000e+00 0.000000e+00 1.000000e+00
    outer loop
      vertex   7.494399e+01 5.500000e+00 2.500000e+00
      vertex   1.009301e+02 7.085681e+00 2.500000e+00
      vertex   1.012052e+02 7.594066e+00 2.500000e+00
    endloop
  endfacet
  facet normal 0.000000e+00 -0.000000e+00 1.000000e+00
    outer loop
      vertex   9.857608e+01 5.547735e+00 2.500000e+00
      vertex   9.913645e+01 5.689640e+00 2.500000e+00
      vertex   9.800000e+01 5.500000e+00 2.500000e+00
    endloop
  endfacet
  facet normal 0.000000e+00 0.000000e+00 1.000000e+00
    outer loop
      vertex   9.800000e+01 5.500000e+00 2.500000e+00
      vertex   9.913645e+01 5.689640e+00 2.500000e+00
      vertex   9.966582e+01 5.921842e+00 2.500000e+00
    endloop
  endfacet
  facet normal 0.000000e+00 0.000000e+00 1.000000e+00
    outer loop
      vertex   9.800000e+01 5.500000e+00 2.500000e+00
      vertex   9.966582e+01 5.921842e+00 2.500000e+00
      vertex   1.001497e+02 6.238008e+00 2.500000e+00
    endloop
  endfacet
  facet normal 0.000000e+00 -0.000000e+00 1.000000e+00
    outer loop
      vertex   1.001497e+02 6.238008e+00 2.500000e+00
      vertex   1.005750e+02 6.629514e+00 2.500000e+00
      vertex   9.800000e+01 5.500000e+00 2.500000e+00
    endloop
  endfacet
  facet normal 0.000000e+00 -0.000000e+00 1.000000e+00
    outer loop
      vertex   1.012052e+02 7.594066e+00 2.500000e+00
      vertex   1.013929e+02 8.140801e+00 2.500000e+00
      vertex   7.494399e+01 5.500000e+00 2.500000e+00
    endloop
  endfacet
  facet normal 0.000000e+00 0.000000e+00 1.000000e+00
    outer loop
      vertex   7.494399e+01 5.500000e+00 2.500000e+00
      vertex   1.013929e+02 8.140801e+00 2.500000e+00
      vertex   1.014880e+02 8.710972e+00 2.500000e+00
    endloop
  endfacet
  facet normal 0.000000e+00 0.000000e+00 1.000000e+00
    outer loop
      vertex   7.494399e+01 5.500000e+00 2.500000e+00
      vertex   1.014880e+02 8.710972e+00 2.500000e+00
      vertex   1.014880e+02 9.289028e+00 2.500000e+00
    endloop
  endfacet
  facet normal 0.000000e+00 0.000000e+00 1.000000e+00
    outer loop
      vertex   1.013929e+02 9.859199e+00 2.500000e+00
      vertex   1.012052e+02 1.040593e+01 2.500000e+00
      vertex   7.493189e+01 1.250000e+01 2.500000e+00
    endloop
  endfacet
  facet normal 0.000000e+00 0.000000e+00 1.000000e+00
    outer loop
      vertex   7.493189e+01 1.250000e+01 2.500000e+00
      vertex   1.012052e+02 1.040593e+01 2.500000e+00
      vertex   1.009301e+02 1.091432e+01 2.500000e+00
    endloop
  endfacet
  facet normal 0.000000e+00 0.000000e+00 1.000000e+00
    outer loop
      vertex   7.493189e+01 1.250000e+01 2.500000e+00
      vertex   1.009301e+02 1.091432e+01 2.500000e+00
      vertex   1.005750e+02 1.137049e+01 2.500000e+00
    endloop
  endfacet
  facet normal -0.000000e+00 0.000000e+00 1.000000e+00
    outer loop
      vertex   7.493189e+01 1.250000e+01 2.500000e+00
      vertex   1.005750e+02 1.137049e+01 2.500000e+00
      vertex   9.800000e+01 1.250000e+01 2.500000e+00
    endloop
  endfacet
  facet normal 0.000000e+00 0.000000e+00 1.000000e+00
    outer loop
      vertex   9.800000e+01 1.250000e+01 2.500000e+00
      vertex   1.005750e+02 1.137049e+01 2.500000e+00
      vertex   1.001497e+02 1.176199e+01 2.500000e+00
    endloop
  endfacet
  facet normal 0.000000e+00 0.000000e+00 1.000000e+00
    outer loop
      vertex   9.800000e+01 1.250000e+01 2.500000e+00
      vertex   1.001497e+02 1.176199e+01 2.500000e+00
      vertex   9.966582e+01 1.207816e+01 2.500000e+00
    endloop
  endfacet
  facet normal 0.000000e+00 0.000000e+00 1.000000e+00
    outer loop
      vertex   9.966582e+01 1.207816e+01 2.500000e+00
      vertex   9.913645e+01 1.231036e+01 2.500000e+00
      vertex   9.800000e+01 1.250000e+01 2.500000e+00
    endloop
  endfacet
  facet normal 0.000000e+00 0.000000e+00 1.000000e+00
    outer loop
      vertex   9.800000e+01 1.250000e+01 2.500000e+00
      vertex   9.913645e+01 1.231036e+01 2.500000e+00
      vertex   9.857608e+01 1.245226e+01 2.500000e+00
    endloop
  endfacet
  facet normal 0.000000e+00 0.000000e+00 1.000000e+00
    outer loop
      vertex   2.600000e+01 2.500000e+00 2.500000e+00
      vertex   7.493189e+01 1.250000e+01 2.500000e+00
      vertex   2.600000e+01 1.550000e+01 2.500000e+00
    endloop
  endfacet
  facet normal -0.000000e+00 0.000000e+00 1.000000e+00
    outer loop
      vertex   2.600000e+01 1.550000e+01 2.500000e+00
      vertex   7.493189e+01 1.250000e+01 2.500000e+00
      vertex   6.093189e+01 1.650000e+01 2.500000e+00
    endloop
  endfacet
  facet normal 0.000000e+00 0.000000e+00 1.000000e+00
    outer loop
      vertex   2.600000e+01 1.550000e+01 2.500000e+00
      vertex   6.093189e+01 1.650000e+01 2.500000e+00
      vertex   2.700000e+01 1.650000e+01 2.500000e+00
    endloop
  endfacet
  facet normal -0.000000e+00 0.000000e+00 1.000000e+00
    outer loop
      vertex   2.674118e+01 1.646593e+01 2.500000e+00
      vertex   2.650000e+01 1.636603e+01 2.500000e+00
      vertex   2.700000e+01 1.650000e+01 2.500000e+00
    endloop
  endfacet
  facet normal 0.000000e+00 0.000000e+00 1.000000e+00
    outer loop
      vertex   2.700000e+01 1.650000e+01 2.500000e+00
      vertex   2.650000e+01 1.636603e+01 2.500000e+00
      vertex   2.629289e+01 1.620711e+01 2.500000e+00
    endloop
  endfacet
  facet normal 0.000000e+00 0.000000e+00 1.000000e+00
    outer loop
      vertex   2.700000e+01 1.650000e+01 2.500000e+00
      vertex   2.629289e+01 1.620711e+01 2.500000e+00
      vertex   2.613397e+01 1.600000e+01 2.500000e+00
    endloop
  endfacet
  facet normal -0.000000e+00 0.000000e+00 1.000000e+00
    outer loop
      vertex   2.613397e+01 1.600000e+01 2.500000e+00
      vertex   2.603407e+01 1.575882e+01 2.500000e+00
      vertex   2.700000e+01 1.650000e+01 2.500000e+00
    endloop
  endfacet
  facet normal 0.000000e+00 0.000000e+00 1.000000e+00
    outer loop
      vertex   2.700000e+01 1.650000e+01 2.500000e+00
      vertex   2.603407e+01 1.575882e+01 2.500000e+00
      vertex   2.600000e+01 1.550000e+01 2.500000e+00
    endloop
  endfacet
  facet normal 0.000000e+00 0.000000e+00 1.000000e+00
    outer loop
      vertex   2.600000e+01 2.500000e+00 2.500000e+00
      vertex   2.603407e+01 2.241181e+00 2.500000e+00
      vertex   2.700000e+01 1.500000e+00 2.500000e+00
    endloop
  endfacet
  facet normal 0.000000e+00 0.000000e+00 1.000000e+00
    outer loop
      vertex   2.700000e+01 1.500000e+00 2.500000e+00
      vertex   2.603407e+01 2.241181e+00 2.500000e+00
      vertex   2.613397e+01 2.000000e+00 2.500000e+00
    endloop
  endfacet
  facet normal 0.000000e+00 0.000000e+00 1.000000e+00
    outer loop
      vertex   2.700000e+01 1.500000e+00 2.500000e+00
      vertex   2.613397e+01 2.000000e+00 2.500000e+00
      vertex   2.629289e+01 1.792893e+00 2.500000e+00
    endloop
  endfacet
  facet normal 0.000000e+00 0.000000e+00 1.000000e+00
    outer loop
      vertex   2.629289e+01 1.792893e+00 2.500000e+00
      vertex   2.650000e+01 1.633975e+00 2.500000e+00
      vertex   2.700000e+01 1.500000e+00 2.500000e+00
    endloop
  endfacet
  facet normal 0.000000e+00 0.000000e+00 1.000000e+00
    outer loop
      vertex   2.700000e+01 1.500000e+00 2.500000e+00
      vertex   2.650000e+01 1.633975e+00 2.500000e+00
      vertex   2.674118e+01 1.534074e+00 2.500000e+00
    endloop
  endfacet
  facet normal -0.000000e+00 0.000000e+00 -1.000000e+00
    outer loop
      vertex   4.304866e+01 8.304134e+00 0.000000e+00
      vertex   2.600000e+01 2.500000e+00 0.000000e+00
      vertex   4.300000e+01 9.000000e+00 0.000000e+00
    endloop
  endfacet
  facet normal -0.000000e+00 0.000000e+00 -1.000000e+00
    outer loop
      vertex   4.300000e+01 9.000000e+00 0.000000e+00
      vertex   2.600000e+01 2.500000e+00 0.000000e+00
      vertex   2.600000e+01 1.550000e+01 0.000000e+00
    endloop
  endfacet
  facet normal 0.000000e+00 0.000000e+00 -1.000000e+00
    outer loop
      vertex   4.300000e+01 9.000000e+00 0.000000e+00
      vertex   2.600000e+01 1.550000e+01 0.000000e+00
      vertex   4.304866e+01 9.695866e+00 0.000000e+00
    endloop
  endfacet
  facet normal 0.000000e+00 0.000000e+00 -1.000000e+00
    outer loop
      vertex   4.304866e+01 9.695866e+00 0.000000e+00
      vertex   2.600000e+01 1.550000e+01 0.000000e+00
      vertex   4.319369e+01 1.037819e+01 0.000000e+00
    endloop
  endfacet
  facet normal 0.000000e+00 0.000000e+00 -1.000000e+00
    outer loop
      vertex   4.319369e+01 1.037819e+01 0.000000e+00
      vertex   2.600000e+01 1.550000e+01 0.000000e+00
      vertex   4.343227e+01 1.103368e+01 0.000000e+00
    endloop
  endfacet
  facet normal 0.000000e+00 0.000000e+00 -1.000000e+00
    outer loop
      vertex   4.343227e+01 1.103368e+01 0.000000e+00
      vertex   2.600000e+01 1.550000e+01 0.000000e+00
      vertex   4.375976e+01 1.164960e+01 0.000000e+00
    endloop
  endfacet
  facet normal 0.000000e+00 0.000000e+00 -1.000000e+00
    outer loop
      vertex   4.375976e+01 1.164960e+01 0.000000e+00
      vertex   2.600000e+01 1.550000e+01 0.000000e+00
      vertex   4.416978e+01 1.221394e+01 0.000000e+00
    endloop
  endfacet
  facet normal 0.000000e+00 0.000000e+00 -1.000000e+00
    outer loop
      vertex   4.416978e+01 1.221394e+01 0.000000e+00
      vertex   2.600000e+01 1.550000e+01 0.000000e+00
      vertex   4.465435e+01 1.271572e+01 0.000000e+00
    endloop
  endfacet
  facet normal 0.000000e+00 0.000000e+00 -1.000000e+00
    outer loop
      vertex   4.465435e+01 1.271572e+01 0.000000e+00
      vertex   2.600000e+01 1.550000e+01 0.000000e+00
      vertex   4.520404e+01 1.314519e+01 0.000000e+00
    endloop
  endfacet
  facet normal 0.000000e+00 0.000000e+00 -1.000000e+00
    outer loop
      vertex   4.520404e+01 1.314519e+01 0.000000e+00
      vertex   2.600000e+01 1.550000e+01 0.000000e+00
      vertex   4.580814e+01 1.349397e+01 0.000000e+00
    endloop
  endfacet
  facet normal 0.000000e+00 0.000000e+00 -1.000000e+00
    outer loop
      vertex   4.580814e+01 1.349397e+01 0.000000e+00
      vertex   2.600000e+01 1.550000e+01 0.000000e+00
      vertex   4.645492e+01 1.375528e+01 0.000000e+00
    endloop
  endfacet
  facet normal 0.000000e+00 0.000000e+00 -1.000000e+00
    outer loop
      vertex   4.645492e+01 1.375528e+01 0.000000e+00
      vertex   2.600000e+01 1.550000e+01 0.000000e+00
      vertex   4.713176e+01 1.392404e+01 0.000000e+00
    endloop
  endfacet
  facet normal 0.000000e+00 0.000000e+00 -1.000000e+00
    outer loop
      vertex   4.713176e+01 1.392404e+01 0.000000e+00
      vertex   2.600000e+01 1.550000e+01 0.000000e+00
      vertex   2.603407e+01 1.575882e+01 0.000000e+00
    endloop
  endfacet
  facet normal 0.000000e+00 0.000000e+00 -1.000000e+00
    outer loop
      vertex   4.713176e+01 1.392404e+01 0.000000e+00
      vertex   2.603407e+01 1.575882e+01 0.000000e+00
      vertex   2.700000e+01 1.650000e+01 0.000000e+00
    endloop
  endfacet
  facet normal 0.000000e+00 0.000000e+00 -1.000000e+00
    outer loop
      vertex   2.700000e+01 1.650000e+01 0.000000e+00
      vertex   2.603407e+01 1.575882e+01 0.000000e+00
      vertex   2.613397e+01 1.600000e+01 0.000000e+00
    endloop
  endfacet
  facet normal 0.000000e+00 0.000000e+00 -1.000000e+00
    outer loop
      vertex   2.700000e+01 1.650000e+01 0.000000e+00
      vertex   2.613397e+01 1.600000e+01 0.000000e+00
      vertex   2.629289e+01 1.620711e+01 0.000000e+00
    endloop
  endfacet
  facet normal 0.000000e+00 -0.000000e+00 -1.000000e+00
    outer loop
      vertex   4.304866e+01 8.304134e+00 0.000000e+00
      vertex   4.319369e+01 7.621813e+00 0.000000e+00
      vertex   2.600000e+01 2.500000e+00 0.000000e+00
    endloop
  endfacet
  facet normal 0.000000e+00 0.000000e+00 -1.000000e+00
    outer loop
      vertex   2.600000e+01 2.500000e+00 0.000000e+00
      vertex   4.319369e+01 7.621813e+00 0.000000e+00
      vertex   4.343227e+01 6.966317e+00 0.000000e+00
    endloop
  endfacet
  facet normal 0.000000e+00 0.000000e+00 -1.000000e+00
    outer loop
      vertex   2.600000e+01 2.500000e+00 0.000000e+00
      vertex   4.343227e+01 6.966317e+00 0.000000e+00
      vertex   4.375976e+01 6.350404e+00 0.000000e+00
    endloop
  endfacet
  facet normal 0.000000e+00 -0.000000e+00 -1.000000e+00
    outer loop
      vertex   4.375976e+01 6.350404e+00 0.000000e+00
      vertex   4.416978e+01 5.786062e+00 0.000000e+00
      vertex   2.600000e+01 2.500000e+00 0.000000e+00
    endloop
  endfacet
  facet normal 0.000000e+00 0.000000e+00 -1.000000e+00
    outer loop
      vertex   2.600000e+01 2.500000e+00 0.000000e+00
      vertex   4.416978e+01 5.786062e+00 0.000000e+00
      vertex   4.465435e+01 5.284276e+00 0.000000e+00
    endloop
  endfacet
  facet normal 0.000000e+00 0.000000e+00 -1.000000e+00
    outer loop
      vertex   2.600000e+01 2.500000e+00 0.000000e+00
      vertex   4.465435e+01 5.284276e+00 0.000000e+00
      vertex   4.520404e+01 4.854812e+00 0.000000e+00
    endloop
  endfacet
  facet normal 0.000000e+00 -0.000000e+00 -1.000000e+00
    outer loop
      vertex   4.520404e+01 4.854812e+00 0.000000e+00
      vertex   4.580814e+01 4.506030e+00 0.000000e+00
      vertex   2.600000e+01 2.500000e+00 0.000000e+00
    endloop
  endfacet
  facet normal 0.000000e+00 0.000000e+00 -1.000000e+00
    outer loop
      vertex   2.600000e+01 2.500000e+00 0.000000e+00
      vertex   4.580814e+01 4.506030e+00 0.000000e+00
      vertex   4.645492e+01 4.244717e+00 0.000000e+00
    endloop
  endfacet
  facet normal 0.000000e+00 0.000000e+00 -1.000000e+00
    outer loop
      vertex   2.600000e+01 2.500000e+00 0.000000e+00
      vertex   4.645492e+01 4.244717e+00 0.000000e+00
      vertex   4.713176e+01 4.075961e+00 0.000000e+00
    endloop
  endfacet
  facet normal -0.000000e+00 0.000000e+00 -1.000000e+00
    outer loop
      vertex   4.782550e+01 4.003046e+00 0.000000e+00
      vertex   2.700000e+01 1.500000e+00 0.000000e+00
      vertex   4.713176e+01 4.075961e+00 0.000000e+00
    endloop
  endfacet
  facet normal 0.000000e+00 0.000000e+00 -1.000000e+00
    outer loop
      vertex   4.713176e+01 4.075961e+00 0.000000e+00
      vertex   2.700000e+01 1.500000e+00 0.000000e+00
      vertex   2.603407e+01 2.241181e+00 0.000000e+00
    endloop
  endfacet
  facet normal 0.000000e+00 0.000000e+00 -1.000000e+00
    outer loop
      vertex   4.713176e+01 4.075961e+00 0.000000e+00
      vertex   2.603407e+01 2.241181e+00 0.000000e+00
      vertex   2.600000e+01 2.500000e+00 0.000000e+00
    endloop
  endfacet
  facet normal 0.000000e+00 0.000000e+00 -1.000000e+00
    outer loop
      vertex   2.700000e+01 1.500000e+00 0.000000e+00
      vertex   4.782550e+01 4.003046e+00 0.000000e+00
      vertex   6.094399e+01 1.500000e+00 0.000000e+00
    endloop
  endfacet
  facet normal 0.000000e+00 0.000000e+00 -1.000000e+00
    outer loop
      vertex   6.094399e+01 1.500000e+00 0.000000e+00
      vertex   4.782550e+01 4.003046e+00 0.000000e+00
      vertex   4.852264e+01 4.027391e+00 0.000000e+00
    endloop
  endfacet
  facet normal 0.000000e+00 0.000000e+00 -1.000000e+00
    outer loop
      vertex   6.094399e+01 1.500000e+00 0.000000e+00
      vertex   4.852264e+01 4.027391e+00 0.000000e+00
      vertex   4.920961e+01 4.148521e+00 0.000000e+00
    endloop
  endfacet
  facet normal 0.000000e+00 0.000000e+00 -1.000000e+00
    outer loop
      vertex   4.920961e+01 4.148521e+00 0.000000e+00
      vertex   4.987303e+01 4.364081e+00 0.000000e+00
      vertex   6.094399e+01 1.500000e+00 0.000000e+00
    endloop
  endfacet
  facet normal 0.000000e+00 0.000000e+00 -1.000000e+00
    outer loop
      vertex   6.094399e+01 1.500000e+00 0.000000e+00
      vertex   4.987303e+01 4.364081e+00 0.000000e+00
      vertex   5.050000e+01 4.669873e+00 0.000000e+00
    endloop
  endfacet
  facet normal 0.000000e+00 0.000000e+00 -1.000000e+00
    outer loop
      vertex   6.094399e+01 1.500000e+00 0.000000e+00
      vertex   5.050000e+01 4.669873e+00 0.000000e+00
      vertex   7.494399e+01 5.500000e+00 0.000000e+00
    endloop
  endfacet
  facet normal 0.000000e+00 0.000000e+00 -1.000000e+00
    outer loop
      vertex   7.494399e+01 5.500000e+00 0.000000e+00
      vertex   5.050000e+01 4.669873e+00 0.000000e+00
      vertex   5.107831e+01 5.059946e+00 0.000000e+00
    endloop
  endfacet
  facet normal -0.000000e+00 0.000000e+00 -1.000000e+00
    outer loop
      vertex   7.494399e+01 5.500000e+00 0.000000e+00
      vertex   5.107831e+01 5.059946e+00 0.000000e+00
      vertex   5.159670e+01 5.526708e+00 0.000000e+00
    endloop
  endfacet
  facet normal 0.000000e+00 0.000000e+00 -1.000000e+00
    outer loop
      vertex   5.159670e+01 5.526708e+00 0.000000e+00
      vertex   5.204508e+01 6.061074e+00 0.000000e+00
      vertex   7.494399e+01 5.500000e+00 0.000000e+00
    endloop
  endfacet
  facet normal 0.000000e+00 0.000000e+00 -1.000000e+00
    outer loop
      vertex   7.494399e+01 5.500000e+00 0.000000e+00
      vertex   5.204508e+01 6.061074e+00 0.000000e+00
      vertex   5.241474e+01 6.652642e+00 0.000000e+00
    endloop
  endfacet
  facet normal 0.000000e+00 0.000000e+00 -1.000000e+00
    outer loop
      vertex   7.494399e+01 5.500000e+00 0.000000e+00
      vertex   5.241474e+01 6.652642e+00 0.000000e+00
      vertex   5.269846e+01 7.289899e+00 0.000000e+00
    endloop
  endfacet
  facet normal 0.000000e+00 0.000000e+00 -1.000000e+00
    outer loop
      vertex   5.269846e+01 7.289899e+00 0.000000e+00
      vertex   5.289074e+01 7.960442e+00 0.000000e+00
      vertex   7.494399e+01 5.500000e+00 0.000000e+00
    endloop
  endfacet
  facet normal 0.000000e+00 0.000000e+00 -1.000000e+00
    outer loop
      vertex   7.494399e+01 5.500000e+00 0.000000e+00
      vertex   5.289074e+01 7.960442e+00 0.000000e+00
      vertex   5.298782e+01 8.651218e+00 0.000000e+00
    endloop
  endfacet
  facet normal 0.000000e+00 0.000000e+00 -1.000000e+00
    outer loop
      vertex   7.494399e+01 5.500000e+00 0.000000e+00
      vertex   5.298782e+01 8.651218e+00 0.000000e+00
      vertex   7.493189e+01 1.250000e+01 0.000000e+00
    endloop
  endfacet
  facet normal 0.000000e+00 0.000000e+00 -1.000000e+00
    outer loop
      vertex   7.493189e+01 1.250000e+01 0.000000e+00
      vertex   5.298782e+01 8.651218e+00 0.000000e+00
      vertex   5.298782e+01 9.348782e+00 0.000000e+00
    endloop
  endfacet
  facet normal 0.000000e+00 0.000000e+00 -1.000000e+00
    outer loop
      vertex   7.493189e+01 1.250000e+01 0.000000e+00
      vertex   5.298782e+01 9.348782e+00 0.000000e+00
      vertex   5.289074e+01 1.003956e+01 0.000000e+00
    endloop
  endfacet
  facet normal 0.000000e+00 0.000000e+00 -1.000000e+00
    outer loop
      vertex   5.289074e+01 1.003956e+01 0.000000e+00
      vertex   5.269846e+01 1.071010e+01 0.000000e+00
      vertex   7.493189e+01 1.250000e+01 0.000000e+00
    endloop
  endfacet
  facet normal 0.000000e+00 0.000000e+00 -1.000000e+00
    outer loop
      vertex   7.493189e+01 1.250000e+01 0.000000e+00
      vertex   5.269846e+01 1.071010e+01 0.000000e+00
      vertex   5.241474e+01 1.134736e+01 0.000000e+00
    endloop
  endfacet
  facet normal 0.000000e+00 0.000000e+00 -1.000000e+00
    outer loop
      vertex   7.493189e+01 1.250000e+01 0.000000e+00
      vertex   5.241474e+01 1.134736e+01 0.000000e+00
      vertex   5.204508e+01 1.193893e+01 0.000000e+00
    endloop
  endfacet
  facet normal 0.000000e+00 0.000000e+00 -1.000000e+00
    outer loop
      vertex   5.204508e+01 1.193893e+01 0.000000e+00
      vertex   5.159670e+01 1.247329e+01 0.000000e+00
      vertex   7.493189e+01 1.250000e+01 0.000000e+00
    endloop
  endfacet
  facet normal -0.000000e+00 0.000000e+00 -1.000000e+00
    outer loop
      vertex   7.493189e+01 1.250000e+01 0.000000e+00
      vertex   5.159670e+01 1.247329e+01 0.000000e+00
      vertex   5.107831e+01 1.294005e+01 0.000000e+00
    endloop
  endfacet
  facet normal 0.000000e+00 0.000000e+00 -1.000000e+00
    outer loop
      vertex   7.493189e+01 1.250000e+01 0.000000e+00
      vertex   5.107831e+01 1.294005e+01 0.000000e+00
      vertex   5.050000e+01 1.333013e+01 0.000000e+00
    endloop
  endfacet
  facet normal 0.000000e+00 0.000000e+00 -1.000000e+00
    outer loop
      vertex   7.493189e+01 1.250000e+01 0.000000e+00
      vertex   5.050000e+01 1.333013e+01 0.000000e+00
      vertex   6.093189e+01 1.650000e+01 0.000000e+00
    endloop
  endfacet
  facet normal 0.000000e+00 0.000000e+00 -1.000000e+00
    outer loop
      vertex   6.093189e+01 1.650000e+01 0.000000e+00
      vertex   5.050000e+01 1.333013e+01 0.000000e+00
      vertex   4.987303e+01 1.363592e+01 0.000000e+00
    endloop
  endfacet
  facet normal 0.000000e+00 0.000000e+00 -1.000000e+00
    outer loop
      vertex   6.093189e+01 1.650000e+01 0.000000e+00
      vertex   4.987303e+01 1.363592e+01 0.000000e+00
      vertex   4.920961e+01 1.385148e+01 0.000000e+00
    endloop
  endfacet
  facet normal 0.000000e+00 0.000000e+00 -1.000000e+00
    outer loop
      vertex   4.920961e+01 1.385148e+01 0.000000e+00
      vertex   4.852264e+01 1.397261e+01 0.000000e+00
      vertex   6.093189e+01 1.650000e+01 0.000000e+00
    endloop
  endfacet
  facet normal 0.000000e+00 0.000000e+00 -1.000000e+00
    outer loop
      vertex   6.093189e+01 1.650000e+01 0.000000e+00
      vertex   4.852264e+01 1.397261e+01 0.000000e+00
      vertex   4.782550e+01 1.399695e+01 0.000000e+00
    endloop
  endfacet
  facet normal 0.000000e+00 0.000000e+00 -1.000000e+00
    outer loop
      vertex   6.093189e+01 1.650000e+01 0.000000e+00
      vertex   4.782550e+01 1.399695e+01 0.000000e+00
      vertex   2.700000e+01 1.650000e+01 0.000000e+00
    endloop
  endfacet
  facet normal 0.000000e+00 0.000000e+00 -1.000000e+00
    outer loop
      vertex   2.700000e+01 1.650000e+01 0.000000e+00
      vertex   4.782550e+01 1.399695e+01 0.000000e+00
      vertex   4.713176e+01 1.392404e+01 0.000000e+00
    endloop
  endfacet
  facet normal 0.000000e+00 0.000000e+00 -1.000000e+00
    outer loop
      vertex   2.674118e+01 1.534074e+00 0.000000e+00
      vertex   2.650000e+01 1.633975e+00 0.000000e+00
      vertex   2.700000e+01 1.500000e+00 0.000000e+00
    endloop
  endfacet
  facet normal 0.000000e+00 0.000000e+00 -1.000000e+00
    outer loop
      vertex   2.700000e+01 1.500000e+00 0.000000e+00
      vertex   2.650000e+01 1.633975e+00 0.000000e+00
      vertex   2.629289e+01 1.792893e+00 0.000000e+00
    endloop
  endfacet
  facet normal 0.000000e+00 0.000000e+00 -1.000000e+00
    outer loop
      vertex   2.700000e+01 1.500000e+00 0.000000e+00
      vertex   2.629289e+01 1.792893e+00 0.000000e+00
      vertex   2.613397e+01 2.000000e+00 0.000000e+00
    endloop
  endfacet
  facet normal 0.000000e+00 0.000000e+00 -1.000000e+00
    outer loop
      vertex   2.613397e+01 2.000000e+00 0.000000e+00
      vertex   2.603407e+01 2.241181e+00 0.000000e+00
      vertex   2.700000e+01 1.500000e+00 0.000000e+00
    endloop
  endfacet
  facet normal 0.000000e+00 0.000000e+00 -1.000000e+00
    outer loop
      vertex   2.629289e+01 1.620711e+01 0.000000e+00
      vertex   2.650000e+01 1.636603e+01 0.000000e+00
      vertex   2.700000e+01 1.650000e+01 0.000000e+00
    endloop
  endfacet
  facet normal 0.000000e+00 0.000000e+00 -1.000000e+00
    outer loop
      vertex   2.700000e+01 1.650000e+01 0.000000e+00
      vertex   2.650000e+01 1.636603e+01 0.000000e+00
      vertex   2.674118e+01 1.646593e+01 0.000000e+00
    endloop
  endfacet
  facet normal 0.000000e+00 -0.000000e+00 -1.000000e+00
    outer loop
      vertex   9.800000e+01 1.250000e+01 0.000000e+00
      vertex   1.005750e+02 1.137049e+01 0.000000e+00
      vertex   7.493189e+01 1.250000e+01 0.000000e+00
    endloop
  endfacet
  facet normal 0.000000e+00 0.000000e+00 -1.000000e+00
    outer loop
      vertex   7.493189e+01 1.250000e+01 0.000000e+00
      vertex   1.005750e+02 1.137049e+01 0.000000e+00
      vertex   1.009301e+02 1.091432e+01 0.000000e+00
    endloop
  endfacet
  facet normal 0.000000e+00 0.000000e+00 -1.000000e+00
    outer loop
      vertex   7.493189e+01 1.250000e+01 0.000000e+00
      vertex   1.009301e+02 1.091432e+01 0.000000e+00
      vertex   1.012052e+02 1.040593e+01 0.000000e+00
    endloop
  endfacet
  facet normal -0.000000e+00 -0.000000e+00 -1.000000e+00
    outer loop
      vertex   9.857608e+01 1.245226e+01 0.000000e+00
      vertex   9.913645e+01 1.231036e+01 0.000000e+00
      vertex   9.800000e+01 1.250000e+01 0.000000e+00
    endloop
  endfacet
  facet normal 0.000000e+00 0.000000e+00 -1.000000e+00
    outer loop
      vertex   9.800000e+01 1.250000e+01 0.000000e+00
      vertex   9.913645e+01 1.231036e+01 0.000000e+00
      vertex   9.966582e+01 1.207816e+01 0.000000e+00
    endloop
  endfacet
  facet normal 0.000000e+00 0.000000e+00 -1.000000e+00
    outer loop
      vertex   9.800000e+01 1.250000e+01 0.000000e+00
      vertex   9.966582e+01 1.207816e+01 0.000000e+00
      vertex   1.001497e+02 1.176199e+01 0.000000e+00
    endloop
  endfacet
  facet normal -0.000000e+00 -0.000000e+00 -1.000000e+00
    outer loop
      vertex   1.001497e+02 1.176199e+01 0.000000e+00
      vertex   1.005750e+02 1.137049e+01 0.000000e+00
      vertex   9.800000e+01 1.250000e+01 0.000000e+00
    endloop
  endfacet
  facet normal -0.000000e+00 -0.000000e+00 -1.000000e+00
    outer loop
      vertex   1.012052e+02 1.040593e+01 0.000000e+00
      vertex   1.013929e+02 9.859199e+00 0.000000e+00
      vertex   7.493189e+01 1.250000e+01 0.000000e+00
    endloop
  endfacet
  facet normal 0.000000e+00 0.000000e+00 -1.000000e+00
    outer loop
      vertex   7.493189e+01 1.250000e+01 0.000000e+00
      vertex   1.013929e+02 9.859199e+00 0.000000e+00
      vertex   1.014880e+02 9.289028e+00 0.000000e+00
    endloop
  endfacet
  facet normal 0.000000e+00 0.000000e+00 -1.000000e+00
    outer loop
      vertex   7.493189e+01 1.250000e+01 0.000000e+00
      vertex   1.014880e+02 9.289028e+00 0.000000e+00
      vertex   7.494399e+01 5.500000e+00 0.000000e+00
    endloop
  endfacet
  facet normal 0.000000e+00 0.000000e+00 -1.000000e+00
    outer loop
      vertex   7.494399e+01 5.500000e+00 0.000000e+00
      vertex   1.014880e+02 9.289028e+00 0.000000e+00
      vertex   1.014880e+02 8.710972e+00 0.000000e+00
    endloop
  endfacet
  facet normal 0.000000e+00 0.000000e+00 -1.000000e+00
    outer loop
      vertex   7.494399e+01 5.500000e+00 0.000000e+00
      vertex   1.014880e+02 8.710972e+00 0.000000e+00
      vertex   1.013929e+02 8.140801e+00 0.000000e+00
    endloop
  endfacet
  facet normal 0.000000e+00 0.000000e+00 -1.000000e+00
    outer loop
      vertex   1.013929e+02 8.140801e+00 0.000000e+00
      vertex   1.012052e+02 7.594066e+00 0.000000e+00
      vertex   7.494399e+01 5.500000e+00 0.000000e+00
    endloop
  endfacet
  facet normal 0.000000e+00 0.000000e+00 -1.000000e+00
    outer loop
      vertex   7.494399e+01 5.500000e+00 0.000000e+00
      vertex   1.012052e+02 7.594066e+00 0.000000e+00
      vertex   1.009301e+02 7.085681e+00 0.000000e+00
    endloop
  endfacet
  facet normal 0.000000e+00 0.000000e+00 -1.000000e+00
    outer loop
      vertex   7.494399e+01 5.500000e+00 0.000000e+00
      vertex   1.009301e+02 7.085681e+00 0.000000e+00
      vertex   1.005750e+02 6.629514e+00 0.000000e+00
    endloop
  endfacet
  facet normal 0.000000e+00 0.000000e+00 -1.000000e+00
    outer loop
      vertex   7.494399e+01 5.500000e+00 0.000000e+00
      vertex   1.005750e+02 6.629514e+00 0.000000e+00
      vertex   9.800000e+01 5.500000e+00 0.000000e+00
    endloop
  endfacet
  facet normal 0.000000e+00 0.000000e+00 -1.000000e+00
    outer loop
      vertex   9.800000e+01 5.500000e+00 0.000000e+00
      vertex   1.005750e+02 6.629514e+00 0.000000e+00
      vertex   1.001497e+02 6.238008e+00 0.000000e+00
    endloop
  endfacet
  facet normal 0.000000e+00 0.000000e+00 -1.000000e+00
    outer loop
      vertex   9.800000e+01 5.500000e+00 0.000000e+00
      vertex   1.001497e+02 6.238008e+00 0.000000e+00
      vertex   9.966582e+01 5.921842e+00 0.000000e+00
    endloop
  endfacet
  facet normal 0.000000e+00 0.000000e+00 -1.000000e+00
    outer loop
      vertex   9.966582e+01 5.921842e+00 0.000000e+00
      vertex   9.913645e+01 5.689640e+00 0.000000e+00
      vertex   9.800000e+01 5.500000e+00 0.000000e+00
    endloop
  endfacet
  facet normal 0.000000e+00 0.000000e+00 -1.000000e+00
    outer loop
      vertex   9.800000e+01 5.500000e+00 0.000000e+00
      vertex   9.913645e+01 5.689640e+00 0.000000e+00
      vertex   9.857608e+01 5.547735e+00 0.000000e+00
    endloop
  endfacet
endsolid
